solid OpenSCAD_Model
  facet normal -0.0523358 -0.99863 0
    outer loop
      vertex -2.1951 -20.885 0
      vertex 0 -21 10
      vertex -2.1951 -20.885 10
    endloop
  endfacet
  facet normal -0.0523358 -0.99863 -0
    outer loop
      vertex 0 -21 10
      vertex -2.1951 -20.885 0
      vertex 0 -21 0
    endloop
  endfacet
  facet normal -0.777146 -0.62932 0
    outer loop
      vertex -15.606 -14.0517 0
      vertex -16.9894 -12.3435 10
      vertex -16.9894 -12.3435 0
    endloop
  endfacet
  facet normal -0.777146 -0.62932 0
    outer loop
      vertex -16.9894 -12.3435 10
      vertex -15.606 -14.0517 0
      vertex -15.606 -14.0517 10
    endloop
  endfacet
  facet normal -0.93358 -0.358368 0
    outer loop
      vertex -19.1845 -8.54147 0
      vertex -19.9722 -6.48936 10
      vertex -19.9722 -6.48936 0
    endloop
  endfacet
  facet normal -0.93358 -0.358368 0
    outer loop
      vertex -19.9722 -6.48936 10
      vertex -19.1845 -8.54147 0
      vertex -19.1845 -8.54147 10
    endloop
  endfacet
  facet normal 0.93358 -0.358368 0
    outer loop
      vertex 19.1845 -8.54147 10
      vertex 19.9722 -6.48936 0
      vertex 19.9722 -6.48936 10
    endloop
  endfacet
  facet normal 0.93358 -0.358368 0
    outer loop
      vertex 19.9722 -6.48936 0
      vertex 19.1845 -8.54147 10
      vertex 19.1845 -8.54147 0
    endloop
  endfacet
  facet normal 0.965926 -0.258819 0
    outer loop
      vertex 19.9722 -6.48936 10
      vertex 20.5411 -4.36615 0
      vertex 20.5411 -4.36615 10
    endloop
  endfacet
  facet normal 0.965926 -0.258819 0
    outer loop
      vertex 20.5411 -4.36615 0
      vertex 19.9722 -6.48936 10
      vertex 19.9722 -6.48936 0
    endloop
  endfacet
  facet normal -0.891007 -0.45399 0
    outer loop
      vertex -18.1865 -10.5 0
      vertex -19.1845 -8.54147 10
      vertex -19.1845 -8.54147 0
    endloop
  endfacet
  facet normal -0.891007 -0.45399 0
    outer loop
      vertex -19.1845 -8.54147 10
      vertex -18.1865 -10.5 0
      vertex -18.1865 -10.5 10
    endloop
  endfacet
  facet normal 0 0 -1
    outer loop
      vertex 20.885 -2.1951 0
      vertex 17.9014 -1.88151 0
      vertex 18 0 0
    endloop
  endfacet
  facet normal 0 0 -1
    outer loop
      vertex 19.1845 -8.54147 0
      vertex 17.6067 -3.74241 0
      vertex 17.9014 -1.88151 0
    endloop
  endfacet
  facet normal 0 0 -1
    outer loop
      vertex 19.1845 -8.54147 0
      vertex 17.119 -5.56231 0
      vertex 17.6067 -3.74241 0
    endloop
  endfacet
  facet normal 0 0 -1
    outer loop
      vertex 15.5885 -9 0
      vertex 18.1865 -10.5 0
      vertex 16.9894 -12.3435 0
    endloop
  endfacet
  facet normal 0 0 -1
    outer loop
      vertex 19.1845 -8.54147 0
      vertex 16.4438 -7.32126 0
      vertex 17.119 -5.56231 0
    endloop
  endfacet
  facet normal 0 0 -1
    outer loop
      vertex 14.5623 -10.5801 0
      vertex 16.9894 -12.3435 0
      vertex 15.606 -14.0517 0
    endloop
  endfacet
  facet normal 0 0 -1
    outer loop
      vertex 18.1865 -10.5 0
      vertex 15.5885 -9 0
      vertex 16.4438 -7.32126 0
    endloop
  endfacet
  facet normal 0 0 -1
    outer loop
      vertex 16.9894 -12.3435 0
      vertex 14.5623 -10.5801 0
      vertex 15.5885 -9 0
    endloop
  endfacet
  facet normal 0 0 -1
    outer loop
      vertex 13.3766 -12.0444 0
      vertex 15.606 -14.0517 0
      vertex 14.0517 -15.606 0
    endloop
  endfacet
  facet normal 0 0 -1
    outer loop
      vertex 15.606 -14.0517 0
      vertex 13.3766 -12.0444 0
      vertex 14.5623 -10.5801 0
    endloop
  endfacet
  facet normal 0 0 -1
    outer loop
      vertex 12.0444 -13.3766 0
      vertex 14.0517 -15.606 0
      vertex 12.3435 -16.9894 0
    endloop
  endfacet
  facet normal 0 0 -1
    outer loop
      vertex 14.0517 -15.606 0
      vertex 12.0444 -13.3766 0
      vertex 13.3766 -12.0444 0
    endloop
  endfacet
  facet normal 0 0 -1
    outer loop
      vertex 12.3435 -16.9894 0
      vertex 10.5801 -14.5623 0
      vertex 12.0444 -13.3766 0
    endloop
  endfacet
  facet normal 0 0 -1
    outer loop
      vertex 10.5 -18.1865 0
      vertex 10.5801 -14.5623 0
      vertex 12.3435 -16.9894 0
    endloop
  endfacet
  facet normal 0 0 -1
    outer loop
      vertex 10.5 -18.1865 0
      vertex 9 -15.5885 0
      vertex 10.5801 -14.5623 0
    endloop
  endfacet
  facet normal 0 0 -1
    outer loop
      vertex 8.54147 -19.1845 0
      vertex 9 -15.5885 0
      vertex 10.5 -18.1865 0
    endloop
  endfacet
  facet normal 0 0 -1
    outer loop
      vertex 8.54147 -19.1845 0
      vertex 7.32126 -16.4438 0
      vertex 9 -15.5885 0
    endloop
  endfacet
  facet normal 0 0 -1
    outer loop
      vertex 6.48936 -19.9722 0
      vertex 7.32126 -16.4438 0
      vertex 8.54147 -19.1845 0
    endloop
  endfacet
  facet normal 0 0 -1
    outer loop
      vertex 6.48936 -19.9722 0
      vertex 5.56231 -17.119 0
      vertex 7.32126 -16.4438 0
    endloop
  endfacet
  facet normal 0 0 -1
    outer loop
      vertex 4.36615 -20.5411 0
      vertex 5.56231 -17.119 0
      vertex 6.48936 -19.9722 0
    endloop
  endfacet
  facet normal 0 0 -1
    outer loop
      vertex 4.36615 -20.5411 0
      vertex 3.74241 -17.6067 0
      vertex 5.56231 -17.119 0
    endloop
  endfacet
  facet normal 0 0 -1
    outer loop
      vertex 2.1951 -20.885 0
      vertex 3.74241 -17.6067 0
      vertex 4.36615 -20.5411 0
    endloop
  endfacet
  facet normal 0 0 -1
    outer loop
      vertex 2.1951 -20.885 0
      vertex 1.88151 -17.9014 0
      vertex 3.74241 -17.6067 0
    endloop
  endfacet
  facet normal 0 0 -1
    outer loop
      vertex 0 -21 0
      vertex 1.88151 -17.9014 0
      vertex 2.1951 -20.885 0
    endloop
  endfacet
  facet normal 0 0 -1
    outer loop
      vertex 0 -21 0
      vertex 0 -18 0
      vertex 1.88151 -17.9014 0
    endloop
  endfacet
  facet normal 0 0 -1
    outer loop
      vertex 0 -21 0
      vertex -1.88151 -17.9014 0
      vertex 0 -18 0
    endloop
  endfacet
  facet normal 0 0 -1
    outer loop
      vertex -2.1951 -20.885 0
      vertex -1.88151 -17.9014 0
      vertex 0 -21 0
    endloop
  endfacet
  facet normal 0 0 -1
    outer loop
      vertex -2.1951 -20.885 0
      vertex -3.74241 -17.6067 0
      vertex -1.88151 -17.9014 0
    endloop
  endfacet
  facet normal 0 0 -1
    outer loop
      vertex -4.36615 -20.5411 0
      vertex -3.74241 -17.6067 0
      vertex -2.1951 -20.885 0
    endloop
  endfacet
  facet normal 0 0 -1
    outer loop
      vertex -4.36615 -20.5411 0
      vertex -5.56231 -17.119 0
      vertex -3.74241 -17.6067 0
    endloop
  endfacet
  facet normal 0 0 -1
    outer loop
      vertex -6.48936 -19.9722 0
      vertex -5.56231 -17.119 0
      vertex -4.36615 -20.5411 0
    endloop
  endfacet
  facet normal 0 0 -1
    outer loop
      vertex -6.48936 -19.9722 0
      vertex -7.32126 -16.4438 0
      vertex -5.56231 -17.119 0
    endloop
  endfacet
  facet normal 0 0 -1
    outer loop
      vertex -8.54147 -19.1845 0
      vertex -7.32126 -16.4438 0
      vertex -6.48936 -19.9722 0
    endloop
  endfacet
  facet normal 0 0 -1
    outer loop
      vertex -8.54147 -19.1845 0
      vertex -9 -15.5885 0
      vertex -7.32126 -16.4438 0
    endloop
  endfacet
  facet normal 0 0 -1
    outer loop
      vertex -10.5 -18.1865 0
      vertex -9 -15.5885 0
      vertex -8.54147 -19.1845 0
    endloop
  endfacet
  facet normal 0 0 -1
    outer loop
      vertex -10.5 -18.1865 0
      vertex -10.5801 -14.5623 0
      vertex -9 -15.5885 0
    endloop
  endfacet
  facet normal 0 0 -1
    outer loop
      vertex -12.3435 -16.9894 0
      vertex -10.5801 -14.5623 0
      vertex -10.5 -18.1865 0
    endloop
  endfacet
  facet normal -0 0 -1
    outer loop
      vertex -10.5801 -14.5623 0
      vertex -12.3435 -16.9894 0
      vertex -12.0444 -13.3766 0
    endloop
  endfacet
  facet normal 0 0 -1
    outer loop
      vertex -14.0517 -15.606 0
      vertex -12.0444 -13.3766 0
      vertex -12.3435 -16.9894 0
    endloop
  endfacet
  facet normal -0 0 -1
    outer loop
      vertex -12.0444 -13.3766 0
      vertex -14.0517 -15.606 0
      vertex -13.3766 -12.0444 0
    endloop
  endfacet
  facet normal 0 0 -1
    outer loop
      vertex -15.606 -14.0517 0
      vertex -13.3766 -12.0444 0
      vertex -14.0517 -15.606 0
    endloop
  endfacet
  facet normal -0 0 -1
    outer loop
      vertex -13.3766 -12.0444 0
      vertex -15.606 -14.0517 0
      vertex -14.5623 -10.5801 0
    endloop
  endfacet
  facet normal 0 0 -1
    outer loop
      vertex -16.9894 -12.3435 0
      vertex -14.5623 -10.5801 0
      vertex -15.606 -14.0517 0
    endloop
  endfacet
  facet normal -0 0 -1
    outer loop
      vertex -14.5623 -10.5801 0
      vertex -16.9894 -12.3435 0
      vertex -15.5885 -9 0
    endloop
  endfacet
  facet normal 0 0 -1
    outer loop
      vertex -18.1865 -10.5 0
      vertex -15.5885 -9 0
      vertex -16.9894 -12.3435 0
    endloop
  endfacet
  facet normal -0 0 -1
    outer loop
      vertex -15.5885 -9 0
      vertex -18.1865 -10.5 0
      vertex -16.4438 -7.32126 0
    endloop
  endfacet
  facet normal 0 0 -1
    outer loop
      vertex -19.1845 -8.54147 0
      vertex -16.4438 -7.32126 0
      vertex -18.1865 -10.5 0
    endloop
  endfacet
  facet normal -0 0 -1
    outer loop
      vertex -16.4438 -7.32126 0
      vertex -19.1845 -8.54147 0
      vertex -17.119 -5.56231 0
    endloop
  endfacet
  facet normal 0 0 -1
    outer loop
      vertex -19.9722 -6.48936 0
      vertex -17.119 -5.56231 0
      vertex -19.1845 -8.54147 0
    endloop
  endfacet
  facet normal -0 0 -1
    outer loop
      vertex -17.119 -5.56231 0
      vertex -19.9722 -6.48936 0
      vertex -17.6067 -3.74241 0
    endloop
  endfacet
  facet normal 0 0 -1
    outer loop
      vertex -20.5411 -4.36615 0
      vertex -17.6067 -3.74241 0
      vertex -19.9722 -6.48936 0
    endloop
  endfacet
  facet normal -0 0 -1
    outer loop
      vertex -17.6067 -3.74241 0
      vertex -20.5411 -4.36615 0
      vertex -17.9014 -1.88151 0
    endloop
  endfacet
  facet normal 0 0 -1
    outer loop
      vertex -20.885 -2.1951 0
      vertex -17.9014 -1.88151 0
      vertex -20.5411 -4.36615 0
    endloop
  endfacet
  facet normal -0 0 -1
    outer loop
      vertex -17.9014 -1.88151 0
      vertex -20.885 -2.1951 0
      vertex -18 0 0
    endloop
  endfacet
  facet normal -0 0 -1
    outer loop
      vertex -18 0 0
      vertex -20.885 -2.1951 0
      vertex -21 0 0
    endloop
  endfacet
  facet normal 0 0 -1
    outer loop
      vertex -18 0 0
      vertex -21 0 0
      vertex -18 20 0
    endloop
  endfacet
  facet normal -0 0 -1
    outer loop
      vertex -18 20 0
      vertex -21 0 0
      vertex -21 20 0
    endloop
  endfacet
  facet normal 0 0 -1
    outer loop
      vertex 18 0 0
      vertex 21 0 0
      vertex 20.885 -2.1951 0
    endloop
  endfacet
  facet normal 0 0 -1
    outer loop
      vertex 17.9014 -1.88151 0
      vertex 20.885 -2.1951 0
      vertex 20.5411 -4.36615 0
    endloop
  endfacet
  facet normal 0 0 -1
    outer loop
      vertex 17.9014 -1.88151 0
      vertex 20.5411 -4.36615 0
      vertex 19.9722 -6.48936 0
    endloop
  endfacet
  facet normal 0 0 -1
    outer loop
      vertex 17.9014 -1.88151 0
      vertex 19.9722 -6.48936 0
      vertex 19.1845 -8.54147 0
    endloop
  endfacet
  facet normal 0 0 -1
    outer loop
      vertex 16.4438 -7.32126 0
      vertex 19.1845 -8.54147 0
      vertex 18.1865 -10.5 0
    endloop
  endfacet
  facet normal 0 0 -1
    outer loop
      vertex 21 0 0
      vertex 18 0 0
      vertex 21 20 0
    endloop
  endfacet
  facet normal -0 0 -1
    outer loop
      vertex 21 20 0
      vertex 18 0 0
      vertex 18 20 0
    endloop
  endfacet
  facet normal -0 0 1
    outer loop
      vertex -20 10 10
      vertex -18 0 10
      vertex -18 10 10
    endloop
  endfacet
  facet normal 0 0 1
    outer loop
      vertex -18 0 10
      vertex -19.1845 -8.54147 10
      vertex -18.1865 -10.5 10
    endloop
  endfacet
  facet normal 0 0 1
    outer loop
      vertex -18 0 10
      vertex -19.9722 -6.48936 10
      vertex -19.1845 -8.54147 10
    endloop
  endfacet
  facet normal 0 0 1
    outer loop
      vertex -18 0 10
      vertex -20 10 10
      vertex -21 0 10
    endloop
  endfacet
  facet normal 0 0 1
    outer loop
      vertex -18 0 10
      vertex -21 0 10
      vertex -20.885 -2.1951 10
    endloop
  endfacet
  facet normal 0 0 1
    outer loop
      vertex -18 0 10
      vertex -20.5411 -4.36615 10
      vertex -19.9722 -6.48936 10
    endloop
  endfacet
  facet normal 0 0 1
    outer loop
      vertex -21 0 10
      vertex -20 10 10
      vertex -21 10.7113 10
    endloop
  endfacet
  facet normal 0 0 1
    outer loop
      vertex -18 0 10
      vertex -20.885 -2.1951 10
      vertex -20.5411 -4.36615 10
    endloop
  endfacet
  facet normal -0 0 1
    outer loop
      vertex 20 10 10
      vertex 21 0 10
      vertex 21 10.7113 10
    endloop
  endfacet
  facet normal 0 0 1
    outer loop
      vertex 18 0 10
      vertex 21 0 10
      vertex 20 10 10
    endloop
  endfacet
  facet normal 0 0 1
    outer loop
      vertex 21 0 10
      vertex 18 0 10
      vertex 20.885 -2.1951 10
    endloop
  endfacet
  facet normal -0 0 1
    outer loop
      vertex 17.9014 -1.88151 10
      vertex 20.885 -2.1951 10
      vertex 18 0 10
    endloop
  endfacet
  facet normal 0 0 1
    outer loop
      vertex 20.885 -2.1951 10
      vertex 17.9014 -1.88151 10
      vertex 20.5411 -4.36615 10
    endloop
  endfacet
  facet normal -0 0 1
    outer loop
      vertex 17.6067 -3.74241 10
      vertex 20.5411 -4.36615 10
      vertex 17.9014 -1.88151 10
    endloop
  endfacet
  facet normal 0 0 1
    outer loop
      vertex 18 0 10
      vertex 20 10 10
      vertex 18 10 10
    endloop
  endfacet
  facet normal 0 0 1
    outer loop
      vertex 20.5411 -4.36615 10
      vertex 17.6067 -3.74241 10
      vertex 19.9722 -6.48936 10
    endloop
  endfacet
  facet normal -0 0 1
    outer loop
      vertex 17.119 -5.56231 10
      vertex 19.9722 -6.48936 10
      vertex 17.6067 -3.74241 10
    endloop
  endfacet
  facet normal 0 0 1
    outer loop
      vertex 19.9722 -6.48936 10
      vertex 17.119 -5.56231 10
      vertex 19.1845 -8.54147 10
    endloop
  endfacet
  facet normal -0 0 1
    outer loop
      vertex 16.4438 -7.32126 10
      vertex 19.1845 -8.54147 10
      vertex 17.119 -5.56231 10
    endloop
  endfacet
  facet normal 0 0 1
    outer loop
      vertex 19.1845 -8.54147 10
      vertex 16.4438 -7.32126 10
      vertex 18.1865 -10.5 10
    endloop
  endfacet
  facet normal -0 0 1
    outer loop
      vertex 15.5885 -9 10
      vertex 18.1865 -10.5 10
      vertex 16.4438 -7.32126 10
    endloop
  endfacet
  facet normal 0 0 1
    outer loop
      vertex 18.1865 -10.5 10
      vertex 15.5885 -9 10
      vertex 16.9894 -12.3435 10
    endloop
  endfacet
  facet normal -0 0 1
    outer loop
      vertex 14.5623 -10.5801 10
      vertex 16.9894 -12.3435 10
      vertex 15.5885 -9 10
    endloop
  endfacet
  facet normal 0 0 1
    outer loop
      vertex 16.9894 -12.3435 10
      vertex 14.5623 -10.5801 10
      vertex 15.606 -14.0517 10
    endloop
  endfacet
  facet normal -0 0 1
    outer loop
      vertex 13.3766 -12.0444 10
      vertex 15.606 -14.0517 10
      vertex 14.5623 -10.5801 10
    endloop
  endfacet
  facet normal 0 0 1
    outer loop
      vertex 15.606 -14.0517 10
      vertex 13.3766 -12.0444 10
      vertex 14.0517 -15.606 10
    endloop
  endfacet
  facet normal -0 0 1
    outer loop
      vertex 12.0444 -13.3766 10
      vertex 14.0517 -15.606 10
      vertex 13.3766 -12.0444 10
    endloop
  endfacet
  facet normal 0 0 1
    outer loop
      vertex 14.0517 -15.606 10
      vertex 12.0444 -13.3766 10
      vertex 12.3435 -16.9894 10
    endloop
  endfacet
  facet normal -0 0 1
    outer loop
      vertex 10.5801 -14.5623 10
      vertex 12.3435 -16.9894 10
      vertex 12.0444 -13.3766 10
    endloop
  endfacet
  facet normal 0 0 1
    outer loop
      vertex 10.5801 -14.5623 10
      vertex 10.5 -18.1865 10
      vertex 12.3435 -16.9894 10
    endloop
  endfacet
  facet normal -0 0 1
    outer loop
      vertex 9 -15.5885 10
      vertex 10.5 -18.1865 10
      vertex 10.5801 -14.5623 10
    endloop
  endfacet
  facet normal 0 0 1
    outer loop
      vertex 9 -15.5885 10
      vertex 8.54147 -19.1845 10
      vertex 10.5 -18.1865 10
    endloop
  endfacet
  facet normal -0 0 1
    outer loop
      vertex 7.32126 -16.4438 10
      vertex 8.54147 -19.1845 10
      vertex 9 -15.5885 10
    endloop
  endfacet
  facet normal 0 0 1
    outer loop
      vertex 7.32126 -16.4438 10
      vertex 6.48936 -19.9722 10
      vertex 8.54147 -19.1845 10
    endloop
  endfacet
  facet normal -0 0 1
    outer loop
      vertex 5.56231 -17.119 10
      vertex 6.48936 -19.9722 10
      vertex 7.32126 -16.4438 10
    endloop
  endfacet
  facet normal 0 0 1
    outer loop
      vertex 5.56231 -17.119 10
      vertex 4.36615 -20.5411 10
      vertex 6.48936 -19.9722 10
    endloop
  endfacet
  facet normal -0 0 1
    outer loop
      vertex 3.74241 -17.6067 10
      vertex 4.36615 -20.5411 10
      vertex 5.56231 -17.119 10
    endloop
  endfacet
  facet normal 0 0 1
    outer loop
      vertex 3.74241 -17.6067 10
      vertex 2.1951 -20.885 10
      vertex 4.36615 -20.5411 10
    endloop
  endfacet
  facet normal -0 0 1
    outer loop
      vertex 1.88151 -17.9014 10
      vertex 2.1951 -20.885 10
      vertex 3.74241 -17.6067 10
    endloop
  endfacet
  facet normal -0 0 1
    outer loop
      vertex 0 -18 10
      vertex 2.1951 -20.885 10
      vertex 1.88151 -17.9014 10
    endloop
  endfacet
  facet normal 0 0 1
    outer loop
      vertex 0 -18 10
      vertex 0 -21 10
      vertex 2.1951 -20.885 10
    endloop
  endfacet
  facet normal 0 0 1
    outer loop
      vertex -1.88151 -17.9014 10
      vertex 0 -21 10
      vertex 0 -18 10
    endloop
  endfacet
  facet normal 0 0 1
    outer loop
      vertex -1.88151 -17.9014 10
      vertex -2.1951 -20.885 10
      vertex 0 -21 10
    endloop
  endfacet
  facet normal 0 0 1
    outer loop
      vertex -3.74241 -17.6067 10
      vertex -2.1951 -20.885 10
      vertex -1.88151 -17.9014 10
    endloop
  endfacet
  facet normal 0 0 1
    outer loop
      vertex -3.74241 -17.6067 10
      vertex -4.36615 -20.5411 10
      vertex -2.1951 -20.885 10
    endloop
  endfacet
  facet normal 0 0 1
    outer loop
      vertex -5.56231 -17.119 10
      vertex -4.36615 -20.5411 10
      vertex -3.74241 -17.6067 10
    endloop
  endfacet
  facet normal 0 0 1
    outer loop
      vertex -5.56231 -17.119 10
      vertex -6.48936 -19.9722 10
      vertex -4.36615 -20.5411 10
    endloop
  endfacet
  facet normal 0 0 1
    outer loop
      vertex -7.32126 -16.4438 10
      vertex -6.48936 -19.9722 10
      vertex -5.56231 -17.119 10
    endloop
  endfacet
  facet normal 0 0 1
    outer loop
      vertex -7.32126 -16.4438 10
      vertex -8.54147 -19.1845 10
      vertex -6.48936 -19.9722 10
    endloop
  endfacet
  facet normal 0 0 1
    outer loop
      vertex -9 -15.5885 10
      vertex -8.54147 -19.1845 10
      vertex -7.32126 -16.4438 10
    endloop
  endfacet
  facet normal 0 0 1
    outer loop
      vertex -9 -15.5885 10
      vertex -10.5 -18.1865 10
      vertex -8.54147 -19.1845 10
    endloop
  endfacet
  facet normal 0 0 1
    outer loop
      vertex -10.5801 -14.5623 10
      vertex -10.5 -18.1865 10
      vertex -9 -15.5885 10
    endloop
  endfacet
  facet normal 0 0 1
    outer loop
      vertex -12.3435 -16.9894 10
      vertex -10.5801 -14.5623 10
      vertex -12.0444 -13.3766 10
    endloop
  endfacet
  facet normal 0 0 1
    outer loop
      vertex -10.5801 -14.5623 10
      vertex -12.3435 -16.9894 10
      vertex -10.5 -18.1865 10
    endloop
  endfacet
  facet normal 0 0 1
    outer loop
      vertex -14.0517 -15.606 10
      vertex -12.0444 -13.3766 10
      vertex -13.3766 -12.0444 10
    endloop
  endfacet
  facet normal 0 0 1
    outer loop
      vertex -12.0444 -13.3766 10
      vertex -14.0517 -15.606 10
      vertex -12.3435 -16.9894 10
    endloop
  endfacet
  facet normal 0 0 1
    outer loop
      vertex -15.606 -14.0517 10
      vertex -13.3766 -12.0444 10
      vertex -14.5623 -10.5801 10
    endloop
  endfacet
  facet normal 0 0 1
    outer loop
      vertex -16.9894 -12.3435 10
      vertex -14.5623 -10.5801 10
      vertex -15.5885 -9 10
    endloop
  endfacet
  facet normal 0 0 1
    outer loop
      vertex -13.3766 -12.0444 10
      vertex -15.606 -14.0517 10
      vertex -14.0517 -15.606 10
    endloop
  endfacet
  facet normal 0 0 1
    outer loop
      vertex -18.1865 -10.5 10
      vertex -15.5885 -9 10
      vertex -16.4438 -7.32126 10
    endloop
  endfacet
  facet normal 0 0 1
    outer loop
      vertex -14.5623 -10.5801 10
      vertex -16.9894 -12.3435 10
      vertex -15.606 -14.0517 10
    endloop
  endfacet
  facet normal 0 0 1
    outer loop
      vertex -18.1865 -10.5 10
      vertex -16.4438 -7.32126 10
      vertex -17.119 -5.56231 10
    endloop
  endfacet
  facet normal 0 0 1
    outer loop
      vertex -18.1865 -10.5 10
      vertex -17.119 -5.56231 10
      vertex -17.6067 -3.74241 10
    endloop
  endfacet
  facet normal 0 0 1
    outer loop
      vertex -18.1865 -10.5 10
      vertex -17.6067 -3.74241 10
      vertex -17.9014 -1.88151 10
    endloop
  endfacet
  facet normal 0 0 1
    outer loop
      vertex -15.5885 -9 10
      vertex -18.1865 -10.5 10
      vertex -16.9894 -12.3435 10
    endloop
  endfacet
  facet normal 0 0 1
    outer loop
      vertex -18.1865 -10.5 10
      vertex -17.9014 -1.88151 10
      vertex -18 0 10
    endloop
  endfacet
  facet normal 0.99863 -0.0523358 0
    outer loop
      vertex 20.885 -2.1951 10
      vertex 21 0 0
      vertex 21 0 10
    endloop
  endfacet
  facet normal 0.99863 -0.0523358 0
    outer loop
      vertex 21 0 0
      vertex 20.885 -2.1951 10
      vertex 20.885 -2.1951 0
    endloop
  endfacet
  facet normal 0.0523358 -0.99863 0
    outer loop
      vertex 0 -21 0
      vertex 2.1951 -20.885 10
      vertex 0 -21 10
    endloop
  endfacet
  facet normal 0.0523358 -0.99863 0
    outer loop
      vertex 2.1951 -20.885 10
      vertex 0 -21 0
      vertex 2.1951 -20.885 0
    endloop
  endfacet
  facet normal 0.258819 -0.965926 0
    outer loop
      vertex 4.36615 -20.5411 0
      vertex 6.48936 -19.9722 10
      vertex 4.36615 -20.5411 10
    endloop
  endfacet
  facet normal 0.258819 -0.965926 0
    outer loop
      vertex 6.48936 -19.9722 10
      vertex 4.36615 -20.5411 0
      vertex 6.48936 -19.9722 0
    endloop
  endfacet
  facet normal 0.62932 -0.777146 0
    outer loop
      vertex 12.3435 -16.9894 0
      vertex 14.0517 -15.606 10
      vertex 12.3435 -16.9894 10
    endloop
  endfacet
  facet normal 0.62932 -0.777146 0
    outer loop
      vertex 14.0517 -15.606 10
      vertex 12.3435 -16.9894 0
      vertex 14.0517 -15.606 0
    endloop
  endfacet
  facet normal 0.45399 -0.891007 0
    outer loop
      vertex 8.54147 -19.1845 0
      vertex 10.5 -18.1865 10
      vertex 8.54147 -19.1845 10
    endloop
  endfacet
  facet normal 0.45399 -0.891007 0
    outer loop
      vertex 10.5 -18.1865 10
      vertex 8.54147 -19.1845 0
      vertex 10.5 -18.1865 0
    endloop
  endfacet
  facet normal 0.777146 -0.62932 0
    outer loop
      vertex 15.606 -14.0517 10
      vertex 16.9894 -12.3435 0
      vertex 16.9894 -12.3435 10
    endloop
  endfacet
  facet normal 0.777146 -0.62932 0
    outer loop
      vertex 16.9894 -12.3435 0
      vertex 15.606 -14.0517 10
      vertex 15.606 -14.0517 0
    endloop
  endfacet
  facet normal 0.891007 -0.45399 0
    outer loop
      vertex 18.1865 -10.5 10
      vertex 19.1845 -8.54147 0
      vertex 19.1845 -8.54147 10
    endloop
  endfacet
  facet normal 0.891007 -0.45399 0
    outer loop
      vertex 19.1845 -8.54147 0
      vertex 18.1865 -10.5 10
      vertex 18.1865 -10.5 0
    endloop
  endfacet
  facet normal -0.707107 -0.707107 0
    outer loop
      vertex -14.0517 -15.606 0
      vertex -15.606 -14.0517 10
      vertex -15.606 -14.0517 0
    endloop
  endfacet
  facet normal -0.707107 -0.707107 0
    outer loop
      vertex -15.606 -14.0517 10
      vertex -14.0517 -15.606 0
      vertex -14.0517 -15.606 10
    endloop
  endfacet
  facet normal -0.544639 -0.838671 0
    outer loop
      vertex -12.3435 -16.9894 0
      vertex -10.5 -18.1865 10
      vertex -12.3435 -16.9894 10
    endloop
  endfacet
  facet normal -0.544639 -0.838671 -0
    outer loop
      vertex -10.5 -18.1865 10
      vertex -12.3435 -16.9894 0
      vertex -10.5 -18.1865 0
    endloop
  endfacet
  facet normal -0.358368 -0.93358 0
    outer loop
      vertex -8.54147 -19.1845 0
      vertex -6.48936 -19.9722 10
      vertex -8.54147 -19.1845 10
    endloop
  endfacet
  facet normal -0.358368 -0.93358 -0
    outer loop
      vertex -6.48936 -19.9722 10
      vertex -8.54147 -19.1845 0
      vertex -6.48936 -19.9722 0
    endloop
  endfacet
  facet normal -0.156435 -0.987688 0
    outer loop
      vertex -4.36615 -20.5411 0
      vertex -2.1951 -20.885 10
      vertex -4.36615 -20.5411 10
    endloop
  endfacet
  facet normal -0.156435 -0.987688 -0
    outer loop
      vertex -2.1951 -20.885 10
      vertex -4.36615 -20.5411 0
      vertex -2.1951 -20.885 0
    endloop
  endfacet
  facet normal -0.838671 -0.544639 0
    outer loop
      vertex -16.9894 -12.3435 0
      vertex -18.1865 -10.5 10
      vertex -18.1865 -10.5 0
    endloop
  endfacet
  facet normal -0.838671 -0.544639 0
    outer loop
      vertex -18.1865 -10.5 10
      vertex -16.9894 -12.3435 0
      vertex -16.9894 -12.3435 10
    endloop
  endfacet
  facet normal -0.965926 -0.258819 0
    outer loop
      vertex -19.9722 -6.48936 0
      vertex -20.5411 -4.36615 10
      vertex -20.5411 -4.36615 0
    endloop
  endfacet
  facet normal -0.965926 -0.258819 0
    outer loop
      vertex -20.5411 -4.36615 10
      vertex -19.9722 -6.48936 0
      vertex -19.9722 -6.48936 10
    endloop
  endfacet
  facet normal -0.99863 -0.0523358 0
    outer loop
      vertex -20.885 -2.1951 0
      vertex -21 0 10
      vertex -21 0 0
    endloop
  endfacet
  facet normal -0.99863 -0.0523358 0
    outer loop
      vertex -21 0 10
      vertex -20.885 -2.1951 0
      vertex -20.885 -2.1951 10
    endloop
  endfacet
  facet normal 0.156435 -0.987688 0
    outer loop
      vertex 2.1951 -20.885 0
      vertex 4.36615 -20.5411 10
      vertex 2.1951 -20.885 10
    endloop
  endfacet
  facet normal 0.156435 -0.987688 0
    outer loop
      vertex 4.36615 -20.5411 10
      vertex 2.1951 -20.885 0
      vertex 4.36615 -20.5411 0
    endloop
  endfacet
  facet normal 0.358368 -0.93358 0
    outer loop
      vertex 6.48936 -19.9722 0
      vertex 8.54147 -19.1845 10
      vertex 6.48936 -19.9722 10
    endloop
  endfacet
  facet normal 0.358368 -0.93358 0
    outer loop
      vertex 8.54147 -19.1845 10
      vertex 6.48936 -19.9722 0
      vertex 8.54147 -19.1845 0
    endloop
  endfacet
  facet normal 0.707107 -0.707107 0
    outer loop
      vertex 14.0517 -15.606 10
      vertex 15.606 -14.0517 0
      vertex 15.606 -14.0517 10
    endloop
  endfacet
  facet normal 0.707107 -0.707107 0
    outer loop
      vertex 15.606 -14.0517 0
      vertex 14.0517 -15.606 10
      vertex 14.0517 -15.606 0
    endloop
  endfacet
  facet normal 0.544639 -0.838671 0
    outer loop
      vertex 10.5 -18.1865 0
      vertex 12.3435 -16.9894 10
      vertex 10.5 -18.1865 10
    endloop
  endfacet
  facet normal 0.544639 -0.838671 0
    outer loop
      vertex 12.3435 -16.9894 10
      vertex 10.5 -18.1865 0
      vertex 12.3435 -16.9894 0
    endloop
  endfacet
  facet normal 0.838671 -0.544639 0
    outer loop
      vertex 16.9894 -12.3435 10
      vertex 18.1865 -10.5 0
      vertex 18.1865 -10.5 10
    endloop
  endfacet
  facet normal 0.838671 -0.544639 0
    outer loop
      vertex 18.1865 -10.5 0
      vertex 16.9894 -12.3435 10
      vertex 16.9894 -12.3435 0
    endloop
  endfacet
  facet normal 0.987688 -0.156435 0
    outer loop
      vertex 20.5411 -4.36615 10
      vertex 20.885 -2.1951 0
      vertex 20.885 -2.1951 10
    endloop
  endfacet
  facet normal 0.987688 -0.156435 0
    outer loop
      vertex 20.885 -2.1951 0
      vertex 20.5411 -4.36615 10
      vertex 20.5411 -4.36615 0
    endloop
  endfacet
  facet normal -0.62932 -0.777146 0
    outer loop
      vertex -14.0517 -15.606 0
      vertex -12.3435 -16.9894 10
      vertex -14.0517 -15.606 10
    endloop
  endfacet
  facet normal -0.62932 -0.777146 -0
    outer loop
      vertex -12.3435 -16.9894 10
      vertex -14.0517 -15.606 0
      vertex -12.3435 -16.9894 0
    endloop
  endfacet
  facet normal -0.45399 -0.891007 0
    outer loop
      vertex -10.5 -18.1865 0
      vertex -8.54147 -19.1845 10
      vertex -10.5 -18.1865 10
    endloop
  endfacet
  facet normal -0.45399 -0.891007 -0
    outer loop
      vertex -8.54147 -19.1845 10
      vertex -10.5 -18.1865 0
      vertex -8.54147 -19.1845 0
    endloop
  endfacet
  facet normal -0.258819 -0.965926 0
    outer loop
      vertex -6.48936 -19.9722 0
      vertex -4.36615 -20.5411 10
      vertex -6.48936 -19.9722 10
    endloop
  endfacet
  facet normal -0.258819 -0.965926 -0
    outer loop
      vertex -4.36615 -20.5411 10
      vertex -6.48936 -19.9722 0
      vertex -4.36615 -20.5411 0
    endloop
  endfacet
  facet normal -0.987688 -0.156435 0
    outer loop
      vertex -20.5411 -4.36615 0
      vertex -20.885 -2.1951 10
      vertex -20.885 -2.1951 0
    endloop
  endfacet
  facet normal -0.987688 -0.156435 0
    outer loop
      vertex -20.885 -2.1951 10
      vertex -20.5411 -4.36615 0
      vertex -20.5411 -4.36615 10
    endloop
  endfacet
  facet normal 0.891007 0.45399 0
    outer loop
      vertex -15.5885 -9 10
      vertex -16.4438 -7.32126 0
      vertex -16.4438 -7.32126 10
    endloop
  endfacet
  facet normal 0.891007 0.45399 0
    outer loop
      vertex -16.4438 -7.32126 0
      vertex -15.5885 -9 10
      vertex -15.5885 -9 0
    endloop
  endfacet
  facet normal -0.777146 0.629321 0
    outer loop
      vertex 13.3766 -12.0444 0
      vertex 14.5623 -10.5801 10
      vertex 14.5623 -10.5801 0
    endloop
  endfacet
  facet normal -0.777146 0.629321 0
    outer loop
      vertex 14.5623 -10.5801 10
      vertex 13.3766 -12.0444 0
      vertex 13.3766 -12.0444 10
    endloop
  endfacet
  facet normal -0.258818 0.965926 0
    outer loop
      vertex 5.56231 -17.119 0
      vertex 3.74241 -17.6067 10
      vertex 5.56231 -17.119 10
    endloop
  endfacet
  facet normal -0.258818 0.965926 0
    outer loop
      vertex 3.74241 -17.6067 10
      vertex 5.56231 -17.119 0
      vertex 3.74241 -17.6067 0
    endloop
  endfacet
  facet normal -0.707107 0.707107 0
    outer loop
      vertex 12.0444 -13.3766 0
      vertex 13.3766 -12.0444 10
      vertex 13.3766 -12.0444 0
    endloop
  endfacet
  facet normal -0.707107 0.707107 0
    outer loop
      vertex 13.3766 -12.0444 10
      vertex 12.0444 -13.3766 0
      vertex 12.0444 -13.3766 10
    endloop
  endfacet
  facet normal 0.0523361 0.99863 -0
    outer loop
      vertex 0 -18 0
      vertex -1.88151 -17.9014 10
      vertex 0 -18 10
    endloop
  endfacet
  facet normal 0.0523361 0.99863 0
    outer loop
      vertex -1.88151 -17.9014 10
      vertex 0 -18 0
      vertex -1.88151 -17.9014 0
    endloop
  endfacet
  facet normal 0.544639 0.83867 -0
    outer loop
      vertex -9 -15.5885 0
      vertex -10.5801 -14.5623 10
      vertex -9 -15.5885 10
    endloop
  endfacet
  facet normal 0.544639 0.83867 0
    outer loop
      vertex -10.5801 -14.5623 10
      vertex -9 -15.5885 0
      vertex -10.5801 -14.5623 0
    endloop
  endfacet
  facet normal 0.629321 0.777146 -0
    outer loop
      vertex -10.5801 -14.5623 0
      vertex -12.0444 -13.3766 10
      vertex -10.5801 -14.5623 10
    endloop
  endfacet
  facet normal 0.629321 0.777146 0
    outer loop
      vertex -12.0444 -13.3766 10
      vertex -10.5801 -14.5623 0
      vertex -12.0444 -13.3766 0
    endloop
  endfacet
  facet normal -0.0523361 0.99863 0
    outer loop
      vertex 1.88151 -17.9014 0
      vertex 0 -18 10
      vertex 1.88151 -17.9014 10
    endloop
  endfacet
  facet normal -0.0523361 0.99863 0
    outer loop
      vertex 0 -18 10
      vertex 1.88151 -17.9014 0
      vertex 0 -18 0
    endloop
  endfacet
  facet normal -0.93358 0.358368 0
    outer loop
      vertex 16.4438 -7.32126 0
      vertex 17.119 -5.56231 10
      vertex 17.119 -5.56231 0
    endloop
  endfacet
  facet normal -0.93358 0.358368 0
    outer loop
      vertex 17.119 -5.56231 10
      vertex 16.4438 -7.32126 0
      vertex 16.4438 -7.32126 10
    endloop
  endfacet
  facet normal -0.838671 0.544639 0
    outer loop
      vertex 14.5623 -10.5801 0
      vertex 15.5885 -9 10
      vertex 15.5885 -9 0
    endloop
  endfacet
  facet normal -0.838671 0.544639 0
    outer loop
      vertex 15.5885 -9 10
      vertex 14.5623 -10.5801 0
      vertex 14.5623 -10.5801 10
    endloop
  endfacet
  facet normal -0.156435 0.987688 0
    outer loop
      vertex 3.74241 -17.6067 0
      vertex 1.88151 -17.9014 10
      vertex 3.74241 -17.6067 10
    endloop
  endfacet
  facet normal -0.156435 0.987688 0
    outer loop
      vertex 1.88151 -17.9014 10
      vertex 3.74241 -17.6067 0
      vertex 1.88151 -17.9014 0
    endloop
  endfacet
  facet normal -0.45399 0.891007 0
    outer loop
      vertex 9 -15.5885 0
      vertex 7.32126 -16.4438 10
      vertex 9 -15.5885 10
    endloop
  endfacet
  facet normal -0.45399 0.891007 0
    outer loop
      vertex 7.32126 -16.4438 10
      vertex 9 -15.5885 0
      vertex 7.32126 -16.4438 0
    endloop
  endfacet
  facet normal -0.629321 0.777146 0
    outer loop
      vertex 12.0444 -13.3766 0
      vertex 10.5801 -14.5623 10
      vertex 12.0444 -13.3766 10
    endloop
  endfacet
  facet normal -0.629321 0.777146 0
    outer loop
      vertex 10.5801 -14.5623 10
      vertex 12.0444 -13.3766 0
      vertex 10.5801 -14.5623 0
    endloop
  endfacet
  facet normal -0.544639 0.83867 0
    outer loop
      vertex 10.5801 -14.5623 0
      vertex 9 -15.5885 10
      vertex 10.5801 -14.5623 10
    endloop
  endfacet
  facet normal -0.544639 0.83867 0
    outer loop
      vertex 9 -15.5885 10
      vertex 10.5801 -14.5623 0
      vertex 9 -15.5885 0
    endloop
  endfacet
  facet normal 0.258818 0.965926 -0
    outer loop
      vertex -3.74241 -17.6067 0
      vertex -5.56231 -17.119 10
      vertex -3.74241 -17.6067 10
    endloop
  endfacet
  facet normal 0.258818 0.965926 0
    outer loop
      vertex -5.56231 -17.119 10
      vertex -3.74241 -17.6067 0
      vertex -5.56231 -17.119 0
    endloop
  endfacet
  facet normal 0.358368 0.93358 -0
    outer loop
      vertex -5.56231 -17.119 0
      vertex -7.32126 -16.4438 10
      vertex -5.56231 -17.119 10
    endloop
  endfacet
  facet normal 0.358368 0.93358 0
    outer loop
      vertex -7.32126 -16.4438 10
      vertex -5.56231 -17.119 0
      vertex -7.32126 -16.4438 0
    endloop
  endfacet
  facet normal 0.156435 0.987688 -0
    outer loop
      vertex -1.88151 -17.9014 0
      vertex -3.74241 -17.6067 10
      vertex -1.88151 -17.9014 10
    endloop
  endfacet
  facet normal 0.156435 0.987688 0
    outer loop
      vertex -3.74241 -17.6067 10
      vertex -1.88151 -17.9014 0
      vertex -3.74241 -17.6067 0
    endloop
  endfacet
  facet normal 0.45399 0.891007 -0
    outer loop
      vertex -7.32126 -16.4438 0
      vertex -9 -15.5885 10
      vertex -7.32126 -16.4438 10
    endloop
  endfacet
  facet normal 0.45399 0.891007 0
    outer loop
      vertex -9 -15.5885 10
      vertex -7.32126 -16.4438 0
      vertex -9 -15.5885 0
    endloop
  endfacet
  facet normal 0.707107 0.707107 0
    outer loop
      vertex -12.0444 -13.3766 10
      vertex -13.3766 -12.0444 0
      vertex -13.3766 -12.0444 10
    endloop
  endfacet
  facet normal 0.707107 0.707107 0
    outer loop
      vertex -13.3766 -12.0444 0
      vertex -12.0444 -13.3766 10
      vertex -12.0444 -13.3766 0
    endloop
  endfacet
  facet normal 0.965926 0.258818 0
    outer loop
      vertex -17.119 -5.56231 10
      vertex -17.6067 -3.74241 0
      vertex -17.6067 -3.74241 10
    endloop
  endfacet
  facet normal 0.965926 0.258818 0
    outer loop
      vertex -17.6067 -3.74241 0
      vertex -17.119 -5.56231 10
      vertex -17.119 -5.56231 0
    endloop
  endfacet
  facet normal 0.99863 0.0523361 0
    outer loop
      vertex -17.9014 -1.88151 10
      vertex -18 0 0
      vertex -18 0 10
    endloop
  endfacet
  facet normal 0.99863 0.0523361 0
    outer loop
      vertex -18 0 0
      vertex -17.9014 -1.88151 10
      vertex -17.9014 -1.88151 0
    endloop
  endfacet
  facet normal 0.777146 0.629321 0
    outer loop
      vertex -13.3766 -12.0444 10
      vertex -14.5623 -10.5801 0
      vertex -14.5623 -10.5801 10
    endloop
  endfacet
  facet normal 0.777146 0.629321 0
    outer loop
      vertex -14.5623 -10.5801 0
      vertex -13.3766 -12.0444 10
      vertex -13.3766 -12.0444 0
    endloop
  endfacet
  facet normal -0.987688 0.156435 0
    outer loop
      vertex 17.6067 -3.74241 0
      vertex 17.9014 -1.88151 10
      vertex 17.9014 -1.88151 0
    endloop
  endfacet
  facet normal -0.987688 0.156435 0
    outer loop
      vertex 17.9014 -1.88151 10
      vertex 17.6067 -3.74241 0
      vertex 17.6067 -3.74241 10
    endloop
  endfacet
  facet normal -0.99863 0.0523361 0
    outer loop
      vertex 17.9014 -1.88151 0
      vertex 18 0 10
      vertex 18 0 0
    endloop
  endfacet
  facet normal -0.99863 0.0523361 0
    outer loop
      vertex 18 0 10
      vertex 17.9014 -1.88151 0
      vertex 17.9014 -1.88151 10
    endloop
  endfacet
  facet normal -0.965926 0.258818 0
    outer loop
      vertex 17.119 -5.56231 0
      vertex 17.6067 -3.74241 10
      vertex 17.6067 -3.74241 0
    endloop
  endfacet
  facet normal -0.965926 0.258818 0
    outer loop
      vertex 17.6067 -3.74241 10
      vertex 17.119 -5.56231 0
      vertex 17.119 -5.56231 10
    endloop
  endfacet
  facet normal -0.891007 0.45399 0
    outer loop
      vertex 15.5885 -9 0
      vertex 16.4438 -7.32126 10
      vertex 16.4438 -7.32126 0
    endloop
  endfacet
  facet normal -0.891007 0.45399 0
    outer loop
      vertex 16.4438 -7.32126 10
      vertex 15.5885 -9 0
      vertex 15.5885 -9 10
    endloop
  endfacet
  facet normal -0.358368 0.93358 0
    outer loop
      vertex 7.32126 -16.4438 0
      vertex 5.56231 -17.119 10
      vertex 7.32126 -16.4438 10
    endloop
  endfacet
  facet normal -0.358368 0.93358 0
    outer loop
      vertex 5.56231 -17.119 10
      vertex 7.32126 -16.4438 0
      vertex 5.56231 -17.119 0
    endloop
  endfacet
  facet normal 0.987688 0.156435 0
    outer loop
      vertex -17.6067 -3.74241 10
      vertex -17.9014 -1.88151 0
      vertex -17.9014 -1.88151 10
    endloop
  endfacet
  facet normal 0.987688 0.156435 0
    outer loop
      vertex -17.9014 -1.88151 0
      vertex -17.6067 -3.74241 10
      vertex -17.6067 -3.74241 0
    endloop
  endfacet
  facet normal 0.93358 0.358368 0
    outer loop
      vertex -16.4438 -7.32126 10
      vertex -17.119 -5.56231 0
      vertex -17.119 -5.56231 10
    endloop
  endfacet
  facet normal 0.93358 0.358368 0
    outer loop
      vertex -17.119 -5.56231 0
      vertex -16.4438 -7.32126 10
      vertex -16.4438 -7.32126 0
    endloop
  endfacet
  facet normal 0.838671 0.544639 0
    outer loop
      vertex -14.5623 -10.5801 10
      vertex -15.5885 -9 0
      vertex -15.5885 -9 10
    endloop
  endfacet
  facet normal 0.838671 0.544639 0
    outer loop
      vertex -15.5885 -9 0
      vertex -14.5623 -10.5801 10
      vertex -14.5623 -10.5801 0
    endloop
  endfacet
  facet normal -1 0 0
    outer loop
      vertex 18 20 0
      vertex 18 10 10
      vertex 18 20 2.22045e-15
    endloop
  endfacet
  facet normal -1 0 0
    outer loop
      vertex 18 0 0
      vertex 18 10 10
      vertex 18 20 0
    endloop
  endfacet
  facet normal -1 -0 0
    outer loop
      vertex 18 10 10
      vertex 18 0 0
      vertex 18 0 10
    endloop
  endfacet
  facet normal -1 0 0
    outer loop
      vertex 18 20 2.22045e-15
      vertex 18 30 10
      vertex 18 30 0
    endloop
  endfacet
  facet normal -1 -0 0
    outer loop
      vertex 18 30 10
      vertex 18 20 2.22045e-15
      vertex 18 10 10
    endloop
  endfacet
  facet normal 0 -2.22045e-16 -1
    outer loop
      vertex 18 20 2.22045e-15
      vertex 20 30 0
      vertex 20 20 2.22045e-15
    endloop
  endfacet
  facet normal -0 -2.22045e-16 -1
    outer loop
      vertex 20 30 0
      vertex 18 20 2.22045e-15
      vertex 18 30 0
    endloop
  endfacet
  facet normal 0.540641 0 -0.841254
    outer loop
      vertex 27.9079 18 0.632577
      vertex 29.584 30 1.70975
      vertex 29.584 18 1.70975
    endloop
  endfacet
  facet normal 0.540641 0 -0.841254
    outer loop
      vertex 29.584 30 1.70975
      vertex 27.9079 18 0.632577
      vertex 27.9079 30 0.632577
    endloop
  endfacet
  facet normal -0.687971 0 0.725738
    outer loop
      vertex 18 30 10
      vertex 20.416 18 12.2902
      vertex 20.416 30 12.2902
    endloop
  endfacet
  facet normal -0.687971 0 0.725738
    outer loop
      vertex 20.416 18 12.2902
      vertex 18 30 10
      vertex 18 10 10
    endloop
  endfacet
  facet normal 0.909632 -0 0.415414
    outer loop
      vertex 30.8888 18 10.7845
      vertex 31.7164 30 8.97213
      vertex 30.8888 30 10.7845
    endloop
  endfacet
  facet normal 0.909632 0 0.415414
    outer loop
      vertex 31.7164 30 8.97213
      vertex 30.8888 18 10.7845
      vertex 31.7164 18 8.97213
    endloop
  endfacet
  facet normal 0 -0.440807 0.897602
    outer loop
      vertex 24.0038 18 13.9288
      vertex 20 10 10
      vertex 25.9962 18 13.9288
    endloop
  endfacet
  facet normal 0 -0.440807 0.897602
    outer loop
      vertex 20 10 10
      vertex 24.0038 18 13.9288
      vertex 18 10 10
    endloop
  endfacet
  facet normal 0.586302 -0.805695 -0.0842944
    outer loop
      vertex 21 10.6828 0.429129
      vertex 25.6163 13.7442 3.27616
      vertex 21 10.6667 0.583333
    endloop
  endfacet
  facet normal 0.586303 -0.805694 -0.084298
    outer loop
      vertex 29.4421 16.2947 5.50787
      vertex 31.7164 18 5.02787
      vertex 32 18 7
    endloop
  endfacet
  facet normal 0.586303 -0.805694 -0.0842985
    outer loop
      vertex 28.0696 15.4733 3.81305
      vertex 31.7164 18 5.02787
      vertex 29.4421 16.2947 5.50787
    endloop
  endfacet
  facet normal 0.586304 -0.805693 -0.0842993
    outer loop
      vertex 25.6163 13.7442 3.27616
      vertex 21 10.6828 0.429129
      vertex 25.8011 13.8861 3.20521
    endloop
  endfacet
  facet normal 0.586303 -0.805694 -0.0842974
    outer loop
      vertex 25.8011 13.8861 3.20521
      vertex 21 10.6828 0.429129
      vertex 28.0696 15.4733 3.81305
    endloop
  endfacet
  facet normal 0.586303 -0.805694 -0.0842976
    outer loop
      vertex 28.0696 15.4733 3.81305
      vertex 21 10.6828 0.429129
      vertex 31.7164 18 5.02787
    endloop
  endfacet
  facet normal 0 1 -0
    outer loop
      vertex 26.1989 30 10.7948
      vertex 25.9962 30 13.9288
      vertex 27.9079 30 13.3674
    endloop
  endfacet
  facet normal 0 1 0
    outer loop
      vertex 25.9962 30 13.9288
      vertex 26.1989 30 10.7948
      vertex 24.0038 30 13.9288
    endloop
  endfacet
  facet normal 0 1 -0
    outer loop
      vertex 28.3914 30 9.95315
      vertex 27.9079 30 13.3674
      vertex 29.584 30 12.2902
    endloop
  endfacet
  facet normal 0 1 0
    outer loop
      vertex 23.9304 30 10.1869
      vertex 24.0038 30 13.9288
      vertex 26.1989 30 10.7948
    endloop
  endfacet
  facet normal 0 1 0
    outer loop
      vertex 24.0038 30 13.9288
      vertex 23.9304 30 10.1869
      vertex 22.0921 30 13.3674
    endloop
  endfacet
  facet normal 0 1 0
    outer loop
      vertex 28.3914 30 9.95315
      vertex 29.584 30 12.2902
      vertex 30.8888 30 10.7845
    endloop
  endfacet
  facet normal 0 1 0
    outer loop
      vertex 27.9079 30 13.3674
      vertex 28.3914 30 9.95315
      vertex 26.1989 30 10.7948
    endloop
  endfacet
  facet normal 0 1 0
    outer loop
      vertex 29.6705 30 7.98351
      vertex 30.8888 30 10.7845
      vertex 31.7164 30 8.97213
    endloop
  endfacet
  facet normal 0 1 0
    outer loop
      vertex 30.8888 30 10.7845
      vertex 29.6705 30 7.98351
      vertex 28.3914 30 9.95315
    endloop
  endfacet
  facet normal 0 1 0
    outer loop
      vertex 32 30 7
      vertex 29.6705 30 7.98351
      vertex 31.7164 30 8.97213
    endloop
  endfacet
  facet normal 0 1 0
    outer loop
      vertex 32 30 7
      vertex 29.5476 30 5.6382
      vertex 29.6705 30 7.98351
    endloop
  endfacet
  facet normal 0 1 -0
    outer loop
      vertex 31.7164 30 5.02787
      vertex 29.5476 30 5.6382
      vertex 32 30 7
    endloop
  endfacet
  facet normal 0 1 -0
    outer loop
      vertex 30.8888 30 3.21552
      vertex 29.5476 30 5.6382
      vertex 31.7164 30 5.02787
    endloop
  endfacet
  facet normal 0 1 0
    outer loop
      vertex 29.5476 30 5.6382
      vertex 30.8888 30 3.21552
      vertex 28.0696 30 3.81305
    endloop
  endfacet
  facet normal 0 1 -0
    outer loop
      vertex 29.584 30 1.70975
      vertex 28.0696 30 3.81305
      vertex 30.8888 30 3.21552
    endloop
  endfacet
  facet normal 0 1 0
    outer loop
      vertex 27.9079 30 0.632577
      vertex 28.0696 30 3.81305
      vertex 29.584 30 1.70975
    endloop
  endfacet
  facet normal 0 1 0
    outer loop
      vertex 22.0921 30 13.3674
      vertex 23.9304 30 10.1869
      vertex 20.416 30 12.2902
    endloop
  endfacet
  facet normal 0 1 -0
    outer loop
      vertex 22.4524 30 8.3618
      vertex 20.416 30 12.2902
      vertex 23.9304 30 10.1869
    endloop
  endfacet
  facet normal 0 1 0
    outer loop
      vertex 20.416 30 12.2902
      vertex 22.4524 30 8.3618
      vertex 18 30 10
    endloop
  endfacet
  facet normal 0 1 -0
    outer loop
      vertex 22.3295 30 6.01649
      vertex 18 30 10
      vertex 22.4524 30 8.3618
    endloop
  endfacet
  facet normal 0 1 0
    outer loop
      vertex 20 30 0
      vertex 22.3295 30 6.01649
      vertex 23.6086 30 4.04685
    endloop
  endfacet
  facet normal 0 1 0
    outer loop
      vertex 28.0696 30 3.81305
      vertex 27.9079 30 0.632577
      vertex 25.8011 30 3.20521
    endloop
  endfacet
  facet normal 0 1 -0
    outer loop
      vertex 25.9962 30 0.07125
      vertex 25.8011 30 3.20521
      vertex 27.9079 30 0.632577
    endloop
  endfacet
  facet normal 0 1 0
    outer loop
      vertex 25.8011 30 3.20521
      vertex 25.9962 30 0.07125
      vertex 23.6086 30 4.04685
    endloop
  endfacet
  facet normal 0 1 0
    outer loop
      vertex 20 30 0
      vertex 23.6086 30 4.04685
      vertex 25.9962 30 0.07125
    endloop
  endfacet
  facet normal 0 1 0
    outer loop
      vertex 22.3295 30 6.01649
      vertex 20 30 0
      vertex 18 30 0
    endloop
  endfacet
  facet normal 0 1 0
    outer loop
      vertex 22.3295 30 6.01649
      vertex 18 30 0
      vertex 18 30 10
    endloop
  endfacet
  facet normal 0.0118817 0 -0.999929
    outer loop
      vertex 21 20 0.0118825
      vertex 25.9962 18 0.07125
      vertex 21 11.3342 0.0118825
    endloop
  endfacet
  facet normal 0.0118817 0 -0.999929
    outer loop
      vertex 25.9962 18 0.07125
      vertex 21 20 0.0118825
      vertex 25.9962 30 0.07125
    endloop
  endfacet
  facet normal 0.0118817 -2.22029e-16 -0.999929
    outer loop
      vertex 20 30 0
      vertex 21 20 0.0118825
      vertex 20 20 2.22045e-15
    endloop
  endfacet
  facet normal 0.0118817 -2.26459e-10 -0.999929
    outer loop
      vertex 21 20 0.0118825
      vertex 20 30 0
      vertex 25.9962 30 0.07125
    endloop
  endfacet
  facet normal 0.489688 -0.423801 -0.76197
    outer loop
      vertex 21 10.8347 0.178396
      vertex 27.9079 18 0.632577
      vertex 29.584 18 1.70975
    endloop
  endfacet
  facet normal 0.489688 -0.4238 -0.761971
    outer loop
      vertex 27.9079 18 0.632577
      vertex 21 10.8347 0.178396
      vertex 21 11.0116 0.079993
    endloop
  endfacet
  facet normal 0.281733 0 0.959493
    outer loop
      vertex 25.9962 30 13.9288
      vertex 27.9079 18 13.3674
      vertex 27.9079 30 13.3674
    endloop
  endfacet
  facet normal 0.281733 0 0.959493
    outer loop
      vertex 27.9079 18 13.3674
      vertex 25.9962 30 13.9288
      vertex 25.9962 18 13.9288
    endloop
  endfacet
  facet normal -0.272683 -0.251423 0.928671
    outer loop
      vertex 22.0921 18 13.3674
      vertex 18 10 10
      vertex 24.0038 18 13.9288
    endloop
  endfacet
  facet normal -0.281733 0 0.959493
    outer loop
      vertex 22.0921 30 13.3674
      vertex 24.0038 18 13.9288
      vertex 24.0038 30 13.9288
    endloop
  endfacet
  facet normal -0.281733 0 0.959493
    outer loop
      vertex 24.0038 18 13.9288
      vertex 22.0921 30 13.3674
      vertex 22.0921 18 13.3674
    endloop
  endfacet
  facet normal 0.51018 -0.737756 0.442076
    outer loop
      vertex 29.584 18 12.2902
      vertex 24.4215 13.2485 10.3185
      vertex 26.1989 14.763 10.7948
    endloop
  endfacet
  facet normal 0.510182 -0.737757 0.442074
    outer loop
      vertex 24.4215 13.2485 10.3185
      vertex 29.584 18 12.2902
      vertex 20 10 10
    endloop
  endfacet
  facet normal 0.510181 -0.737757 0.442075
    outer loop
      vertex 26.9626 15.1154 10.5016
      vertex 29.584 18 12.2902
      vertex 26.1989 14.763 10.7948
    endloop
  endfacet
  facet normal 0.510181 -0.737757 0.442075
    outer loop
      vertex 29.584 18 12.2902
      vertex 26.9626 15.1154 10.5016
      vertex 30.8888 18 10.7845
    endloop
  endfacet
  facet normal 0.281733 0 -0.959493
    outer loop
      vertex 25.9962 18 0.07125
      vertex 27.9079 30 0.632577
      vertex 27.9079 18 0.632577
    endloop
  endfacet
  facet normal 0.281733 0 -0.959493
    outer loop
      vertex 27.9079 30 0.632577
      vertex 25.9962 18 0.07125
      vertex 25.9962 30 0.07125
    endloop
  endfacet
  facet normal 0.276122 -0.198585 -0.940383
    outer loop
      vertex 21 11.3342 0.0118825
      vertex 27.9079 18 0.632577
      vertex 21 11.0116 0.079993
    endloop
  endfacet
  facet normal 0.276122 -0.198585 -0.940383
    outer loop
      vertex 27.9079 18 0.632577
      vertex 21 11.3342 0.0118825
      vertex 25.9962 18 0.07125
    endloop
  endfacet
  facet normal 0.600125 -0.607815 -0.520011
    outer loop
      vertex 21 10.7347 0.295306
      vertex 29.584 18 1.70975
      vertex 30.8888 18 3.21552
    endloop
  endfacet
  facet normal 0.600125 -0.607816 -0.520009
    outer loop
      vertex 29.584 18 1.70975
      vertex 21 10.7347 0.295306
      vertex 21 10.8347 0.178396
    endloop
  endfacet
  facet normal 0.989821 0 -0.142315
    outer loop
      vertex 32 18 7
      vertex 31.7164 30 5.02787
      vertex 32 30 7
    endloop
  endfacet
  facet normal 0.989821 0 -0.142315
    outer loop
      vertex 31.7164 30 5.02787
      vertex 32 18 7
      vertex 31.7164 18 5.02787
    endloop
  endfacet
  facet normal 0.560327 -0.787752 0.255891
    outer loop
      vertex 21 10.7113 10
      vertex 24.4215 13.2485 10.3185
      vertex 20 10 10
    endloop
  endfacet
  facet normal 0.560324 -0.78775 0.255903
    outer loop
      vertex 24.4215 13.2485 10.3185
      vertex 21 10.7113 10
      vertex 23.9304 12.8564 10.1869
    endloop
  endfacet
  facet normal 0.560326 -0.78775 0.255898
    outer loop
      vertex 23.5283 12.4091 9.69046
      vertex 21 10.7113 10
      vertex 21 10.6828 9.91227
    endloop
  endfacet
  facet normal 0.560327 -0.787752 0.255892
    outer loop
      vertex 21 10.7113 10
      vertex 23.5283 12.4091 9.69046
      vertex 23.9304 12.8564 10.1869
    endloop
  endfacet
  facet normal 0.560327 -0.787752 0.255892
    outer loop
      vertex 28.3914 15.9536 9.95315
      vertex 30.8888 18 10.7845
      vertex 26.9626 15.1154 10.5016
    endloop
  endfacet
  facet normal 0.560327 -0.787752 0.255892
    outer loop
      vertex 28.8661 16.0538 9.22218
      vertex 30.8888 18 10.7845
      vertex 28.3914 15.9536 9.95315
    endloop
  endfacet
  facet normal 0.560327 -0.787752 0.255892
    outer loop
      vertex 30.8888 18 10.7845
      vertex 28.8661 16.0538 9.22218
      vertex 31.7164 18 8.97213
    endloop
  endfacet
  facet normal -0 0 1
    outer loop
      vertex 24.0038 30 13.9288
      vertex 25.9962 18 13.9288
      vertex 25.9962 30 13.9288
    endloop
  endfacet
  facet normal 0 0 1
    outer loop
      vertex 25.9962 18 13.9288
      vertex 24.0038 30 13.9288
      vertex 24.0038 18 13.9288
    endloop
  endfacet
  facet normal 0.404153 -0.664211 0.628875
    outer loop
      vertex 27.9079 18 13.3674
      vertex 20 10 10
      vertex 29.584 18 12.2902
    endloop
  endfacet
  facet normal 0.620752 -0.730959 -0.283488
    outer loop
      vertex 21 10.6828 0.429129
      vertex 30.8888 18 3.21552
      vertex 31.7164 18 5.02787
    endloop
  endfacet
  facet normal 0.620752 -0.730957 -0.283492
    outer loop
      vertex 30.8888 18 3.21552
      vertex 21 10.6828 0.429129
      vertex 21 10.7347 0.295306
    endloop
  endfacet
  facet normal 0.566881 -0.819758 0.0815022
    outer loop
      vertex 23.1427 12.0952 9.21431
      vertex 21 10.6828 9.91227
      vertex 21 10.6667 9.75
    endloop
  endfacet
  facet normal 0.566881 -0.819757 0.0815054
    outer loop
      vertex 21 10.6828 9.91227
      vertex 23.1427 12.0952 9.21431
      vertex 23.5283 12.4091 9.69046
    endloop
  endfacet
  facet normal 0.566881 -0.819758 0.0815051
    outer loop
      vertex 29.6705 16.4869 7.98351
      vertex 31.7164 18 8.97213
      vertex 28.8661 16.0538 9.22218
    endloop
  endfacet
  facet normal 0.566882 -0.819757 0.0815079
    outer loop
      vertex 32 18 7
      vertex 29.6705 16.4869 7.98351
      vertex 29.6498 16.4332 7.58756
    endloop
  endfacet
  facet normal 0.566881 -0.819758 0.0815055
    outer loop
      vertex 29.6705 16.4869 7.98351
      vertex 32 18 7
      vertex 31.7164 18 8.97213
    endloop
  endfacet
  facet normal 0.5547 -0.83205 8.31306e-08
    outer loop
      vertex 21 10.6667 9.75
      vertex 22.4524 11.6349 8.3618
      vertex 23.1427 12.0952 9.21431
    endloop
  endfacet
  facet normal 0.5547 -0.83205 2.23887e-07
    outer loop
      vertex 21 10.6667 9.75
      vertex 22.3295 11.553 6.01649
      vertex 22.4524 11.6349 8.3618
    endloop
  endfacet
  facet normal 0.5547 -0.83205 7.69711e-08
    outer loop
      vertex 23.6086 12.4057 4.04685
      vertex 21 10.6667 0.583333
      vertex 25.6163 13.7442 3.27616
    endloop
  endfacet
  facet normal 0.5547 -0.83205 -2.16335e-07
    outer loop
      vertex 22.3295 11.553 6.01649
      vertex 21 10.6667 0.583333
      vertex 23.6086 12.4057 4.04685
    endloop
  endfacet
  facet normal 0.5547 -0.832051 0
    outer loop
      vertex 21 10.6667 0.583333
      vertex 22.3295 11.553 6.01649
      vertex 21 10.6667 9.75
    endloop
  endfacet
  facet normal 0.5547 -0.83205 0
    outer loop
      vertex 29.5476 16.3651 5.6382
      vertex 32 18 7
      vertex 29.6498 16.4332 7.58756
    endloop
  endfacet
  facet normal 0.554697 -0.832052 7.37537e-06
    outer loop
      vertex 32 18 7
      vertex 29.5476 16.3651 5.6382
      vertex 29.4421 16.2947 5.50787
    endloop
  endfacet
  facet normal 0.989821 -0 0.142315
    outer loop
      vertex 31.7164 18 8.97213
      vertex 32 30 7
      vertex 31.7164 30 8.97213
    endloop
  endfacet
  facet normal 0.989821 0 0.142315
    outer loop
      vertex 32 30 7
      vertex 31.7164 18 8.97213
      vertex 32 18 7
    endloop
  endfacet
  facet normal -0.540641 0 0.841254
    outer loop
      vertex 20.416 30 12.2902
      vertex 22.0921 18 13.3674
      vertex 22.0921 30 13.3674
    endloop
  endfacet
  facet normal -0.540641 0 0.841254
    outer loop
      vertex 22.0921 18 13.3674
      vertex 20.416 30 12.2902
      vertex 20.416 18 12.2902
    endloop
  endfacet
  facet normal -0.539022 -0.0773307 0.838734
    outer loop
      vertex 20.416 18 12.2902
      vertex 18 10 10
      vertex 22.0921 18 13.3674
    endloop
  endfacet
  facet normal 0.540641 0 0.841254
    outer loop
      vertex 27.9079 30 13.3674
      vertex 29.584 18 12.2902
      vertex 29.584 30 12.2902
    endloop
  endfacet
  facet normal 0.540641 0 0.841254
    outer loop
      vertex 29.584 18 12.2902
      vertex 27.9079 30 13.3674
      vertex 27.9079 18 13.3674
    endloop
  endfacet
  facet normal 0.75575 -0 0.654861
    outer loop
      vertex 29.584 18 12.2902
      vertex 30.8888 30 10.7845
      vertex 29.584 30 12.2902
    endloop
  endfacet
  facet normal 0.75575 0 0.654861
    outer loop
      vertex 30.8888 30 10.7845
      vertex 29.584 18 12.2902
      vertex 30.8888 18 10.7845
    endloop
  endfacet
  facet normal 0.232716 -0.563646 0.792557
    outer loop
      vertex 25.9962 18 13.9288
      vertex 20 10 10
      vertex 27.9079 18 13.3674
    endloop
  endfacet
  facet normal 0.909632 0 -0.415414
    outer loop
      vertex 31.7164 18 5.02787
      vertex 30.8888 30 3.21552
      vertex 31.7164 30 5.02787
    endloop
  endfacet
  facet normal 0.909632 0 -0.415414
    outer loop
      vertex 30.8888 30 3.21552
      vertex 31.7164 18 5.02787
      vertex 30.8888 18 3.21552
    endloop
  endfacet
  facet normal 0.75575 0 -0.654861
    outer loop
      vertex 30.8888 18 3.21552
      vertex 29.584 30 1.70975
      vertex 30.8888 30 3.21552
    endloop
  endfacet
  facet normal 0.75575 0 -0.654861
    outer loop
      vertex 29.584 30 1.70975
      vertex 30.8888 18 3.21552
      vertex 29.584 18 1.70975
    endloop
  endfacet
  facet normal -0.777146 0 0.62932
    outer loop
      vertex 28.0696 30 3.81305
      vertex 29.5476 16.3651 5.6382
      vertex 29.5476 30 5.6382
    endloop
  endfacet
  facet normal -0.777148 -5.0235e-07 0.629318
    outer loop
      vertex 28.0696 30 3.81305
      vertex 29.4421 16.2947 5.50787
      vertex 29.5476 16.3651 5.6382
    endloop
  endfacet
  facet normal -0.777146 0 0.629321
    outer loop
      vertex 29.4421 16.2947 5.50787
      vertex 28.0696 30 3.81305
      vertex 28.0696 15.4733 3.81305
    endloop
  endfacet
  facet normal -0.838671 0 -0.544639
    outer loop
      vertex 29.6705 16.4869 7.98351
      vertex 28.3914 30 9.95315
      vertex 29.6705 30 7.98351
    endloop
  endfacet
  facet normal -0.838671 3.69332e-06 -0.544638
    outer loop
      vertex 28.3914 15.9536 9.95315
      vertex 29.6705 16.4869 7.98351
      vertex 28.8661 16.0538 9.22218
    endloop
  endfacet
  facet normal -0.838671 0 -0.544639
    outer loop
      vertex 29.6705 16.4869 7.98351
      vertex 28.3914 15.9536 9.95315
      vertex 28.3914 30 9.95315
    endloop
  endfacet
  facet normal -0.358368 -5.1417e-08 -0.93358
    outer loop
      vertex 26.1989 30 10.7948
      vertex 28.3914 15.9536 9.95315
      vertex 26.9626 15.1154 10.5016
    endloop
  endfacet
  facet normal -0.358367 -0 -0.933581
    outer loop
      vertex 26.1989 30 10.7948
      vertex 26.9626 15.1154 10.5016
      vertex 26.1989 14.763 10.7948
    endloop
  endfacet
  facet normal -0.358368 0 -0.93358
    outer loop
      vertex 28.3914 15.9536 9.95315
      vertex 26.1989 30 10.7948
      vertex 28.3914 30 9.95315
    endloop
  endfacet
  facet normal 0.99863 0 -0.0523355
    outer loop
      vertex 22.4524 11.6349 8.3618
      vertex 22.3295 30 6.01649
      vertex 22.4524 30 8.3618
    endloop
  endfacet
  facet normal 0.99863 0 -0.0523355
    outer loop
      vertex 22.3295 30 6.01649
      vertex 22.4524 11.6349 8.3618
      vertex 22.3295 11.553 6.01649
    endloop
  endfacet
  facet normal -0.258819 0 0.965926
    outer loop
      vertex 25.8011 30 3.20521
      vertex 28.0696 15.4733 3.81305
      vertex 28.0696 30 3.81305
    endloop
  endfacet
  facet normal -0.258819 0 0.965926
    outer loop
      vertex 28.0696 15.4733 3.81305
      vertex 25.8011 30 3.20521
      vertex 25.8011 13.8861 3.20521
    endloop
  endfacet
  facet normal -0.99863 0 0.0523355
    outer loop
      vertex 29.5476 30 5.6382
      vertex 29.6705 16.4869 7.98351
      vertex 29.6705 30 7.98351
    endloop
  endfacet
  facet normal -0.99863 -3.58262e-07 0.0523335
    outer loop
      vertex 29.5476 30 5.6382
      vertex 29.6498 16.4332 7.58756
      vertex 29.6705 16.4869 7.98351
    endloop
  endfacet
  facet normal -0.99863 0 0.052336
    outer loop
      vertex 29.6498 16.4332 7.58756
      vertex 29.5476 30 5.6382
      vertex 29.5476 16.3651 5.6382
    endloop
  endfacet
  facet normal 0.777146 0 -0.62932
    outer loop
      vertex 23.9304 12.8564 10.1869
      vertex 22.4524 30 8.3618
      vertex 23.9304 30 10.1869
    endloop
  endfacet
  facet normal 0.77715 -1.12927e-05 -0.629315
    outer loop
      vertex 23.1427 12.0952 9.21431
      vertex 23.9304 12.8564 10.1869
      vertex 23.5283 12.4091 9.69046
    endloop
  endfacet
  facet normal 0.777146 1.17526e-06 -0.629321
    outer loop
      vertex 23.9304 12.8564 10.1869
      vertex 23.1427 12.0952 9.21431
      vertex 22.4524 11.6349 8.3618
    endloop
  endfacet
  facet normal 0.777146 0 -0.62932
    outer loop
      vertex 23.9304 12.8564 10.1869
      vertex 22.4524 11.6349 8.3618
      vertex 22.4524 30 8.3618
    endloop
  endfacet
  facet normal 0.258819 3.79644e-10 -0.965926
    outer loop
      vertex 23.9304 30 10.1869
      vertex 26.1989 14.763 10.7948
      vertex 24.4215 13.2485 10.3185
    endloop
  endfacet
  facet normal 0.258819 0 -0.965926
    outer loop
      vertex 23.9304 30 10.1869
      vertex 24.4215 13.2485 10.3185
      vertex 23.9304 12.8564 10.1869
    endloop
  endfacet
  facet normal 0.258819 0 -0.965926
    outer loop
      vertex 26.1989 14.763 10.7948
      vertex 23.9304 30 10.1869
      vertex 26.1989 30 10.7948
    endloop
  endfacet
  facet normal 0.838671 0 0.544639
    outer loop
      vertex 22.3295 30 6.01649
      vertex 23.6086 12.4057 4.04685
      vertex 23.6086 30 4.04685
    endloop
  endfacet
  facet normal 0.838671 0 0.544639
    outer loop
      vertex 23.6086 12.4057 4.04685
      vertex 22.3295 30 6.01649
      vertex 22.3295 11.553 6.01649
    endloop
  endfacet
  facet normal 0.358368 0 0.93358
    outer loop
      vertex 23.6086 30 4.04685
      vertex 25.8011 13.8861 3.20521
      vertex 25.8011 30 3.20521
    endloop
  endfacet
  facet normal 0.358369 8.69555e-08 0.93358
    outer loop
      vertex 25.8011 13.8861 3.20521
      vertex 23.6086 30 4.04685
      vertex 25.6163 13.7442 3.27616
    endloop
  endfacet
  facet normal 0.358368 0 0.93358
    outer loop
      vertex 25.6163 13.7442 3.27616
      vertex 23.6086 30 4.04685
      vertex 23.6086 12.4057 4.04685
    endloop
  endfacet
  facet normal 1 0 0
    outer loop
      vertex -18 30 10
      vertex -18 20 2.22045e-15
      vertex -18 30 0
    endloop
  endfacet
  facet normal 1 -0 0
    outer loop
      vertex -18 10 10
      vertex -18 20 2.22045e-15
      vertex -18 30 10
    endloop
  endfacet
  facet normal 1 0 0
    outer loop
      vertex -18 10 10
      vertex -18 20 0
      vertex -18 20 2.22045e-15
    endloop
  endfacet
  facet normal 1 0 0
    outer loop
      vertex -18 0 0
      vertex -18 10 10
      vertex -18 0 10
    endloop
  endfacet
  facet normal 1 0 0
    outer loop
      vertex -18 10 10
      vertex -18 0 0
      vertex -18 20 0
    endloop
  endfacet
  facet normal 0 -2.22045e-16 -1
    outer loop
      vertex -20 20 2.22045e-15
      vertex -18 30 0
      vertex -18 20 2.22045e-15
    endloop
  endfacet
  facet normal -0 -2.22045e-16 -1
    outer loop
      vertex -18 30 0
      vertex -20 20 2.22045e-15
      vertex -20 30 0
    endloop
  endfacet
  facet normal -0.540641 0 -0.841254
    outer loop
      vertex -29.584 18 1.70975
      vertex -27.9079 30 0.632577
      vertex -27.9079 18 0.632577
    endloop
  endfacet
  facet normal -0.540641 0 -0.841254
    outer loop
      vertex -27.9079 30 0.632577
      vertex -29.584 18 1.70975
      vertex -29.584 30 1.70975
    endloop
  endfacet
  facet normal 0.687971 -0 0.725738
    outer loop
      vertex -20.416 18 12.2902
      vertex -18 30 10
      vertex -20.416 30 12.2902
    endloop
  endfacet
  facet normal 0.687971 0 0.725738
    outer loop
      vertex -18 30 10
      vertex -20.416 18 12.2902
      vertex -18 10 10
    endloop
  endfacet
  facet normal -0.909632 0 0.415414
    outer loop
      vertex -31.7164 18 8.97213
      vertex -30.8888 30 10.7845
      vertex -31.7164 30 8.97213
    endloop
  endfacet
  facet normal -0.909632 0 0.415414
    outer loop
      vertex -30.8888 30 10.7845
      vertex -31.7164 18 8.97213
      vertex -30.8888 18 10.7845
    endloop
  endfacet
  facet normal 0 -0.440807 0.897602
    outer loop
      vertex -24.0038 18 13.9288
      vertex -20 10 10
      vertex -18 10 10
    endloop
  endfacet
  facet normal 0 -0.440807 0.897602
    outer loop
      vertex -20 10 10
      vertex -24.0038 18 13.9288
      vertex -25.9962 18 13.9288
    endloop
  endfacet
  facet normal -0.586303 -0.805694 -0.084298
    outer loop
      vertex -31.7164 18 5.02787
      vertex -29.4421 16.2947 5.50787
      vertex -32 18 7
    endloop
  endfacet
  facet normal -0.586303 -0.805694 -0.0842985
    outer loop
      vertex -31.7164 18 5.02787
      vertex -28.0696 15.4733 3.81305
      vertex -29.4421 16.2947 5.50787
    endloop
  endfacet
  facet normal -0.586303 -0.805694 -0.0842974
    outer loop
      vertex -21 10.6828 0.429129
      vertex -25.8011 13.8861 3.20521
      vertex -28.0696 15.4733 3.81305
    endloop
  endfacet
  facet normal -0.586303 -0.805694 -0.0842976
    outer loop
      vertex -21 10.6828 0.429129
      vertex -28.0696 15.4733 3.81305
      vertex -31.7164 18 5.02787
    endloop
  endfacet
  facet normal -0.586302 -0.805695 -0.0842944
    outer loop
      vertex -25.8011 13.8861 3.20521
      vertex -21 10.6828 0.429129
      vertex -21 10.6667 0.583333
    endloop
  endfacet
  facet normal -0.586304 -0.805693 -0.0842995
    outer loop
      vertex -25.6163 13.7442 3.27616
      vertex -25.8011 13.8861 3.20521
      vertex -21 10.6667 0.583333
    endloop
  endfacet
  facet normal 0 1 -0
    outer loop
      vertex -23.9304 30 10.1869
      vertex -24.0038 30 13.9288
      vertex -22.0921 30 13.3674
    endloop
  endfacet
  facet normal -0 1 0
    outer loop
      vertex -26.1989 30 10.7948
      vertex -24.0038 30 13.9288
      vertex -23.9304 30 10.1869
    endloop
  endfacet
  facet normal 0 1 0
    outer loop
      vertex -23.9304 30 10.1869
      vertex -22.0921 30 13.3674
      vertex -20.416 30 12.2902
    endloop
  endfacet
  facet normal 0 1 0
    outer loop
      vertex -24.0038 30 13.9288
      vertex -26.1989 30 10.7948
      vertex -25.9962 30 13.9288
    endloop
  endfacet
  facet normal 0 1 0
    outer loop
      vertex -28.3914 30 9.95315
      vertex -27.9079 30 13.3674
      vertex -26.1989 30 10.7948
    endloop
  endfacet
  facet normal 0 1 0
    outer loop
      vertex -25.9962 30 13.9288
      vertex -26.1989 30 10.7948
      vertex -27.9079 30 13.3674
    endloop
  endfacet
  facet normal 0 1 0
    outer loop
      vertex -22.4524 30 8.3618
      vertex -20.416 30 12.2902
      vertex -18 30 10
    endloop
  endfacet
  facet normal 0 1 0
    outer loop
      vertex -20.416 30 12.2902
      vertex -22.4524 30 8.3618
      vertex -23.9304 30 10.1869
    endloop
  endfacet
  facet normal 0 1 0
    outer loop
      vertex -18 30 10
      vertex -22.3295 30 6.01649
      vertex -22.4524 30 8.3618
    endloop
  endfacet
  facet normal 0 1 -0
    outer loop
      vertex -18 30 0
      vertex -22.3295 30 6.01649
      vertex -18 30 10
    endloop
  endfacet
  facet normal 0 1 0
    outer loop
      vertex -25.9962 30 0.07125
      vertex -25.8011 30 3.20521
      vertex -23.6086 30 4.04685
    endloop
  endfacet
  facet normal 0 1 0
    outer loop
      vertex -25.8011 30 3.20521
      vertex -27.9079 30 0.632577
      vertex -29.584 30 1.70975
    endloop
  endfacet
  facet normal 0 1 0
    outer loop
      vertex -25.8011 30 3.20521
      vertex -25.9962 30 0.07125
      vertex -27.9079 30 0.632577
    endloop
  endfacet
  facet normal 0 1 -0
    outer loop
      vertex -20 30 0
      vertex -22.3295 30 6.01649
      vertex -18 30 0
    endloop
  endfacet
  facet normal 0 1 0
    outer loop
      vertex -22.3295 30 6.01649
      vertex -20 30 0
      vertex -23.6086 30 4.04685
    endloop
  endfacet
  facet normal 0 1 0
    outer loop
      vertex -23.6086 30 4.04685
      vertex -20 30 0
      vertex -25.9962 30 0.07125
    endloop
  endfacet
  facet normal 0 1 0
    outer loop
      vertex -27.9079 30 13.3674
      vertex -28.3914 30 9.95315
      vertex -29.584 30 12.2902
    endloop
  endfacet
  facet normal 0 1 0
    outer loop
      vertex -29.584 30 12.2902
      vertex -28.3914 30 9.95315
      vertex -30.8888 30 10.7845
    endloop
  endfacet
  facet normal 0 1 -0
    outer loop
      vertex -29.6705 30 7.98351
      vertex -30.8888 30 10.7845
      vertex -28.3914 30 9.95315
    endloop
  endfacet
  facet normal 0 1 0
    outer loop
      vertex -30.8888 30 10.7845
      vertex -29.6705 30 7.98351
      vertex -31.7164 30 8.97213
    endloop
  endfacet
  facet normal 0 1 0
    outer loop
      vertex -29.6705 30 7.98351
      vertex -32 30 7
      vertex -31.7164 30 8.97213
    endloop
  endfacet
  facet normal 0 1 0
    outer loop
      vertex -29.5476 30 5.6382
      vertex -32 30 7
      vertex -29.6705 30 7.98351
    endloop
  endfacet
  facet normal 0 1 0
    outer loop
      vertex -29.5476 30 5.6382
      vertex -31.7164 30 5.02787
      vertex -32 30 7
    endloop
  endfacet
  facet normal 0 1 0
    outer loop
      vertex -30.8888 30 3.21552
      vertex -29.5476 30 5.6382
      vertex -28.0696 30 3.81305
    endloop
  endfacet
  facet normal 0 1 0
    outer loop
      vertex -29.5476 30 5.6382
      vertex -30.8888 30 3.21552
      vertex -31.7164 30 5.02787
    endloop
  endfacet
  facet normal 0 1 0
    outer loop
      vertex -29.584 30 1.70975
      vertex -28.0696 30 3.81305
      vertex -25.8011 30 3.20521
    endloop
  endfacet
  facet normal 0 1 0
    outer loop
      vertex -28.0696 30 3.81305
      vertex -29.584 30 1.70975
      vertex -30.8888 30 3.21552
    endloop
  endfacet
  facet normal -0.0118817 0 -0.999929
    outer loop
      vertex -21 11.3342 0.0118825
      vertex -25.9962 18 0.07125
      vertex -21 20 0.0118825
    endloop
  endfacet
  facet normal -0.0118817 -2.22029e-16 -0.999929
    outer loop
      vertex -21 20 0.0118825
      vertex -20 30 0
      vertex -20 20 2.22045e-15
    endloop
  endfacet
  facet normal -0.0118817 -0 -0.999929
    outer loop
      vertex -25.9962 30 0.07125
      vertex -21 20 0.0118825
      vertex -25.9962 18 0.07125
    endloop
  endfacet
  facet normal -0.0118817 -2.26459e-10 -0.999929
    outer loop
      vertex -21 20 0.0118825
      vertex -25.9962 30 0.07125
      vertex -20 30 0
    endloop
  endfacet
  facet normal -0.489688 -0.4238 -0.761971
    outer loop
      vertex -21 10.8347 0.178396
      vertex -27.9079 18 0.632577
      vertex -21 11.0116 0.079993
    endloop
  endfacet
  facet normal -0.489688 -0.423801 -0.76197
    outer loop
      vertex -27.9079 18 0.632577
      vertex -21 10.8347 0.178396
      vertex -29.584 18 1.70975
    endloop
  endfacet
  facet normal -0.281733 0 0.959493
    outer loop
      vertex -27.9079 30 13.3674
      vertex -25.9962 18 13.9288
      vertex -25.9962 30 13.9288
    endloop
  endfacet
  facet normal -0.281733 0 0.959493
    outer loop
      vertex -25.9962 18 13.9288
      vertex -27.9079 30 13.3674
      vertex -27.9079 18 13.3674
    endloop
  endfacet
  facet normal 0.272683 -0.251423 0.928671
    outer loop
      vertex -18 10 10
      vertex -22.0921 18 13.3674
      vertex -24.0038 18 13.9288
    endloop
  endfacet
  facet normal 0.281733 0 0.959493
    outer loop
      vertex -24.0038 30 13.9288
      vertex -22.0921 18 13.3674
      vertex -22.0921 30 13.3674
    endloop
  endfacet
  facet normal 0.281733 0 0.959493
    outer loop
      vertex -22.0921 18 13.3674
      vertex -24.0038 30 13.9288
      vertex -24.0038 18 13.9288
    endloop
  endfacet
  facet normal -0.510181 -0.737757 0.442075
    outer loop
      vertex -26.9626 15.1154 10.5016
      vertex -29.584 18 12.2902
      vertex -30.8888 18 10.7845
    endloop
  endfacet
  facet normal -0.510181 -0.737757 0.442075
    outer loop
      vertex -29.584 18 12.2902
      vertex -26.9626 15.1154 10.5016
      vertex -26.1989 14.763 10.7948
    endloop
  endfacet
  facet normal -0.51018 -0.737756 0.442076
    outer loop
      vertex -24.4215 13.2485 10.3185
      vertex -29.584 18 12.2902
      vertex -26.1989 14.763 10.7948
    endloop
  endfacet
  facet normal -0.510182 -0.737757 0.442074
    outer loop
      vertex -29.584 18 12.2902
      vertex -24.4215 13.2485 10.3185
      vertex -20 10 10
    endloop
  endfacet
  facet normal -0.281733 0 -0.959493
    outer loop
      vertex -27.9079 18 0.632577
      vertex -25.9962 30 0.07125
      vertex -25.9962 18 0.07125
    endloop
  endfacet
  facet normal -0.281733 0 -0.959493
    outer loop
      vertex -25.9962 30 0.07125
      vertex -27.9079 18 0.632577
      vertex -27.9079 30 0.632577
    endloop
  endfacet
  facet normal -0.276122 -0.198585 -0.940383
    outer loop
      vertex -27.9079 18 0.632577
      vertex -21 11.3342 0.0118825
      vertex -21 11.0116 0.079993
    endloop
  endfacet
  facet normal -0.276122 -0.198585 -0.940383
    outer loop
      vertex -21 11.3342 0.0118825
      vertex -27.9079 18 0.632577
      vertex -25.9962 18 0.07125
    endloop
  endfacet
  facet normal -0.600125 -0.607815 -0.520011
    outer loop
      vertex -29.584 18 1.70975
      vertex -21 10.7347 0.295306
      vertex -30.8888 18 3.21552
    endloop
  endfacet
  facet normal -0.600125 -0.607816 -0.520009
    outer loop
      vertex -21 10.7347 0.295306
      vertex -29.584 18 1.70975
      vertex -21 10.8347 0.178396
    endloop
  endfacet
  facet normal -0.989821 0 -0.142315
    outer loop
      vertex -31.7164 18 5.02787
      vertex -32 30 7
      vertex -31.7164 30 5.02787
    endloop
  endfacet
  facet normal -0.989821 -0 -0.142315
    outer loop
      vertex -32 30 7
      vertex -31.7164 18 5.02787
      vertex -32 18 7
    endloop
  endfacet
  facet normal -0.560327 -0.787752 0.255892
    outer loop
      vertex -23.5283 12.4091 9.69046
      vertex -21 10.7113 10
      vertex -23.9304 12.8564 10.1869
    endloop
  endfacet
  facet normal -0.560326 -0.78775 0.255898
    outer loop
      vertex -21 10.7113 10
      vertex -23.5283 12.4091 9.69046
      vertex -21 10.6828 9.91227
    endloop
  endfacet
  facet normal -0.560324 -0.78775 0.255903
    outer loop
      vertex -21 10.7113 10
      vertex -24.4215 13.2485 10.3185
      vertex -23.9304 12.8564 10.1869
    endloop
  endfacet
  facet normal -0.560327 -0.787752 0.255891
    outer loop
      vertex -24.4215 13.2485 10.3185
      vertex -21 10.7113 10
      vertex -20 10 10
    endloop
  endfacet
  facet normal -0.560327 -0.787752 0.255892
    outer loop
      vertex -30.8888 18 10.7845
      vertex -28.3914 15.9536 9.95315
      vertex -26.9626 15.1154 10.5016
    endloop
  endfacet
  facet normal -0.560327 -0.787752 0.255892
    outer loop
      vertex -30.8888 18 10.7845
      vertex -28.8661 16.0538 9.22218
      vertex -28.3914 15.9536 9.95315
    endloop
  endfacet
  facet normal -0.560327 -0.787752 0.255892
    outer loop
      vertex -28.8661 16.0538 9.22218
      vertex -30.8888 18 10.7845
      vertex -31.7164 18 8.97213
    endloop
  endfacet
  facet normal -0 0 1
    outer loop
      vertex -25.9962 30 13.9288
      vertex -24.0038 18 13.9288
      vertex -24.0038 30 13.9288
    endloop
  endfacet
  facet normal 0 0 1
    outer loop
      vertex -24.0038 18 13.9288
      vertex -25.9962 30 13.9288
      vertex -25.9962 18 13.9288
    endloop
  endfacet
  facet normal -0.404153 -0.664211 0.628875
    outer loop
      vertex -20 10 10
      vertex -27.9079 18 13.3674
      vertex -29.584 18 12.2902
    endloop
  endfacet
  facet normal -0.620752 -0.730959 -0.283488
    outer loop
      vertex -30.8888 18 3.21552
      vertex -21 10.6828 0.429129
      vertex -31.7164 18 5.02787
    endloop
  endfacet
  facet normal -0.620752 -0.730957 -0.283492
    outer loop
      vertex -21 10.6828 0.429129
      vertex -30.8888 18 3.21552
      vertex -21 10.7347 0.295306
    endloop
  endfacet
  facet normal -0.566881 -0.819757 0.0815054
    outer loop
      vertex -23.1427 12.0952 9.21431
      vertex -21 10.6828 9.91227
      vertex -23.5283 12.4091 9.69046
    endloop
  endfacet
  facet normal -0.566881 -0.819758 0.0815022
    outer loop
      vertex -21 10.6828 9.91227
      vertex -23.1427 12.0952 9.21431
      vertex -21 10.6667 9.75
    endloop
  endfacet
  facet normal -0.566881 -0.819758 0.0815051
    outer loop
      vertex -31.7164 18 8.97213
      vertex -29.6705 16.4869 7.98351
      vertex -28.8661 16.0538 9.22218
    endloop
  endfacet
  facet normal -0.566881 -0.819758 0.0815055
    outer loop
      vertex -32 18 7
      vertex -29.6705 16.4869 7.98351
      vertex -31.7164 18 8.97213
    endloop
  endfacet
  facet normal -0.566882 -0.819757 0.0815079
    outer loop
      vertex -29.6705 16.4869 7.98351
      vertex -32 18 7
      vertex -29.6498 16.4332 7.58756
    endloop
  endfacet
  facet normal -0.5547 -0.83205 8.31306e-08
    outer loop
      vertex -22.4524 11.6349 8.3618
      vertex -21 10.6667 9.75
      vertex -23.1427 12.0952 9.21431
    endloop
  endfacet
  facet normal -0.5547 -0.83205 2.23887e-07
    outer loop
      vertex -22.3295 11.553 6.01649
      vertex -21 10.6667 9.75
      vertex -22.4524 11.6349 8.3618
    endloop
  endfacet
  facet normal -0.5547 -0.832051 0
    outer loop
      vertex -22.3295 11.553 6.01649
      vertex -21 10.6667 0.583333
      vertex -21 10.6667 9.75
    endloop
  endfacet
  facet normal -0.5547 -0.83205 -2.16335e-07
    outer loop
      vertex -23.6086 12.4057 4.04685
      vertex -21 10.6667 0.583333
      vertex -22.3295 11.553 6.01649
    endloop
  endfacet
  facet normal -0.5547 -0.83205 7.69711e-08
    outer loop
      vertex -21 10.6667 0.583333
      vertex -23.6086 12.4057 4.04685
      vertex -25.6163 13.7442 3.27616
    endloop
  endfacet
  facet normal -0.5547 -0.83205 0
    outer loop
      vertex -32 18 7
      vertex -29.5476 16.3651 5.6382
      vertex -29.6498 16.4332 7.58756
    endloop
  endfacet
  facet normal -0.554697 -0.832052 7.37537e-06
    outer loop
      vertex -29.5476 16.3651 5.6382
      vertex -32 18 7
      vertex -29.4421 16.2947 5.50787
    endloop
  endfacet
  facet normal -0.989821 0 0.142315
    outer loop
      vertex -32 18 7
      vertex -31.7164 30 8.97213
      vertex -32 30 7
    endloop
  endfacet
  facet normal -0.989821 0 0.142315
    outer loop
      vertex -31.7164 30 8.97213
      vertex -32 18 7
      vertex -31.7164 18 8.97213
    endloop
  endfacet
  facet normal 0.540641 0 0.841254
    outer loop
      vertex -22.0921 30 13.3674
      vertex -20.416 18 12.2902
      vertex -20.416 30 12.2902
    endloop
  endfacet
  facet normal 0.540641 0 0.841254
    outer loop
      vertex -20.416 18 12.2902
      vertex -22.0921 30 13.3674
      vertex -22.0921 18 13.3674
    endloop
  endfacet
  facet normal 0.539022 -0.0773307 0.838734
    outer loop
      vertex -18 10 10
      vertex -20.416 18 12.2902
      vertex -22.0921 18 13.3674
    endloop
  endfacet
  facet normal -0.540641 0 0.841254
    outer loop
      vertex -29.584 30 12.2902
      vertex -27.9079 18 13.3674
      vertex -27.9079 30 13.3674
    endloop
  endfacet
  facet normal -0.540641 0 0.841254
    outer loop
      vertex -27.9079 18 13.3674
      vertex -29.584 30 12.2902
      vertex -29.584 18 12.2902
    endloop
  endfacet
  facet normal -0.75575 0 0.654861
    outer loop
      vertex -30.8888 18 10.7845
      vertex -29.584 30 12.2902
      vertex -30.8888 30 10.7845
    endloop
  endfacet
  facet normal -0.75575 0 0.654861
    outer loop
      vertex -29.584 30 12.2902
      vertex -30.8888 18 10.7845
      vertex -29.584 18 12.2902
    endloop
  endfacet
  facet normal -0.232716 -0.563646 0.792557
    outer loop
      vertex -20 10 10
      vertex -25.9962 18 13.9288
      vertex -27.9079 18 13.3674
    endloop
  endfacet
  facet normal -0.909632 0 -0.415414
    outer loop
      vertex -30.8888 18 3.21552
      vertex -31.7164 30 5.02787
      vertex -30.8888 30 3.21552
    endloop
  endfacet
  facet normal -0.909632 -0 -0.415414
    outer loop
      vertex -31.7164 30 5.02787
      vertex -30.8888 18 3.21552
      vertex -31.7164 18 5.02787
    endloop
  endfacet
  facet normal -0.75575 0 -0.654861
    outer loop
      vertex -29.584 18 1.70975
      vertex -30.8888 30 3.21552
      vertex -29.584 30 1.70975
    endloop
  endfacet
  facet normal -0.75575 -0 -0.654861
    outer loop
      vertex -30.8888 30 3.21552
      vertex -29.584 18 1.70975
      vertex -30.8888 18 3.21552
    endloop
  endfacet
  facet normal 0.777146 -0 0.62932
    outer loop
      vertex -29.5476 16.3651 5.6382
      vertex -28.0696 30 3.81305
      vertex -29.5476 30 5.6382
    endloop
  endfacet
  facet normal 0.777148 -5.0235e-07 0.629318
    outer loop
      vertex -29.4421 16.2947 5.50787
      vertex -28.0696 30 3.81305
      vertex -29.5476 16.3651 5.6382
    endloop
  endfacet
  facet normal 0.777146 0 0.629321
    outer loop
      vertex -28.0696 30 3.81305
      vertex -29.4421 16.2947 5.50787
      vertex -28.0696 15.4733 3.81305
    endloop
  endfacet
  facet normal 0.838671 0 -0.544639
    outer loop
      vertex -28.3914 30 9.95315
      vertex -29.6705 16.4869 7.98351
      vertex -29.6705 30 7.98351
    endloop
  endfacet
  facet normal 0.838671 0 -0.544639
    outer loop
      vertex -28.3914 15.9536 9.95315
      vertex -29.6705 16.4869 7.98351
      vertex -28.3914 30 9.95315
    endloop
  endfacet
  facet normal 0.838671 3.69332e-06 -0.544638
    outer loop
      vertex -29.6705 16.4869 7.98351
      vertex -28.3914 15.9536 9.95315
      vertex -28.8661 16.0538 9.22218
    endloop
  endfacet
  facet normal 0.358367 0 -0.933581
    outer loop
      vertex -26.9626 15.1154 10.5016
      vertex -26.1989 30 10.7948
      vertex -26.1989 14.763 10.7948
    endloop
  endfacet
  facet normal 0.358368 -5.1417e-08 -0.93358
    outer loop
      vertex -28.3914 15.9536 9.95315
      vertex -26.1989 30 10.7948
      vertex -26.9626 15.1154 10.5016
    endloop
  endfacet
  facet normal 0.358368 0 -0.93358
    outer loop
      vertex -26.1989 30 10.7948
      vertex -28.3914 15.9536 9.95315
      vertex -28.3914 30 9.95315
    endloop
  endfacet
  facet normal -0.99863 0 -0.0523355
    outer loop
      vertex -22.3295 30 6.01649
      vertex -22.4524 11.6349 8.3618
      vertex -22.4524 30 8.3618
    endloop
  endfacet
  facet normal -0.99863 0 -0.0523355
    outer loop
      vertex -22.4524 11.6349 8.3618
      vertex -22.3295 30 6.01649
      vertex -22.3295 11.553 6.01649
    endloop
  endfacet
  facet normal 0.258819 -0 0.965926
    outer loop
      vertex -28.0696 15.4733 3.81305
      vertex -25.8011 30 3.20521
      vertex -28.0696 30 3.81305
    endloop
  endfacet
  facet normal 0.258819 0 0.965926
    outer loop
      vertex -25.8011 30 3.20521
      vertex -28.0696 15.4733 3.81305
      vertex -25.8011 13.8861 3.20521
    endloop
  endfacet
  facet normal 0.99863 -0 0.0523355
    outer loop
      vertex -29.6705 16.4869 7.98351
      vertex -29.5476 30 5.6382
      vertex -29.6705 30 7.98351
    endloop
  endfacet
  facet normal 0.99863 -3.58262e-07 0.0523335
    outer loop
      vertex -29.6498 16.4332 7.58756
      vertex -29.5476 30 5.6382
      vertex -29.6705 16.4869 7.98351
    endloop
  endfacet
  facet normal 0.99863 0 0.052336
    outer loop
      vertex -29.5476 30 5.6382
      vertex -29.6498 16.4332 7.58756
      vertex -29.5476 16.3651 5.6382
    endloop
  endfacet
  facet normal -0.777146 0 -0.62932
    outer loop
      vertex -22.4524 30 8.3618
      vertex -23.9304 12.8564 10.1869
      vertex -23.9304 30 10.1869
    endloop
  endfacet
  facet normal -0.777146 0 -0.62932
    outer loop
      vertex -22.4524 11.6349 8.3618
      vertex -23.9304 12.8564 10.1869
      vertex -22.4524 30 8.3618
    endloop
  endfacet
  facet normal -0.777146 1.17526e-06 -0.629321
    outer loop
      vertex -23.1427 12.0952 9.21431
      vertex -23.9304 12.8564 10.1869
      vertex -22.4524 11.6349 8.3618
    endloop
  endfacet
  facet normal -0.77715 -1.12927e-05 -0.629315
    outer loop
      vertex -23.9304 12.8564 10.1869
      vertex -23.1427 12.0952 9.21431
      vertex -23.5283 12.4091 9.69046
    endloop
  endfacet
  facet normal -0.258819 0 -0.965926
    outer loop
      vertex -24.4215 13.2485 10.3185
      vertex -23.9304 30 10.1869
      vertex -23.9304 12.8564 10.1869
    endloop
  endfacet
  facet normal -0.258819 3.79644e-10 -0.965926
    outer loop
      vertex -26.1989 14.763 10.7948
      vertex -23.9304 30 10.1869
      vertex -24.4215 13.2485 10.3185
    endloop
  endfacet
  facet normal -0.258819 0 -0.965926
    outer loop
      vertex -23.9304 30 10.1869
      vertex -26.1989 14.763 10.7948
      vertex -26.1989 30 10.7948
    endloop
  endfacet
  facet normal -0.838671 0 0.544639
    outer loop
      vertex -23.6086 12.4057 4.04685
      vertex -22.3295 30 6.01649
      vertex -23.6086 30 4.04685
    endloop
  endfacet
  facet normal -0.838671 0 0.544639
    outer loop
      vertex -22.3295 30 6.01649
      vertex -23.6086 12.4057 4.04685
      vertex -22.3295 11.553 6.01649
    endloop
  endfacet
  facet normal -0.358368 0 0.93358
    outer loop
      vertex -23.6086 30 4.04685
      vertex -25.6163 13.7442 3.27616
      vertex -23.6086 12.4057 4.04685
    endloop
  endfacet
  facet normal -0.358368 0 0.93358
    outer loop
      vertex -25.8011 13.8861 3.20521
      vertex -23.6086 30 4.04685
      vertex -25.8011 30 3.20521
    endloop
  endfacet
  facet normal -0.358369 8.69555e-08 0.93358
    outer loop
      vertex -23.6086 30 4.04685
      vertex -25.8011 13.8861 3.20521
      vertex -25.6163 13.7442 3.27616
    endloop
  endfacet
  facet normal 1 0 0
    outer loop
      vertex 21 10.6667 9.75
      vertex 21 0 10
      vertex 21 10.6667 0.583333
    endloop
  endfacet
  facet normal 1 0 0
    outer loop
      vertex 21 10.6828 9.91227
      vertex 21 0 10
      vertex 21 10.6667 9.75
    endloop
  endfacet
  facet normal 1 -0 0
    outer loop
      vertex 21 0 10
      vertex 21 10.6828 9.91227
      vertex 21 10.7113 10
    endloop
  endfacet
  facet normal 1 -0 0
    outer loop
      vertex 21 11.3342 0.0118825
      vertex 21 20 0
      vertex 21 20 0.0118825
    endloop
  endfacet
  facet normal 1 0 0
    outer loop
      vertex 21 0 0
      vertex 21 10.6667 0.583333
      vertex 21 0 10
    endloop
  endfacet
  facet normal 1 0 0
    outer loop
      vertex 21 10.6667 0.583333
      vertex 21 0 0
      vertex 21 10.6828 0.429129
    endloop
  endfacet
  facet normal 1 0 0
    outer loop
      vertex 21 10.6828 0.429129
      vertex 21 0 0
      vertex 21 10.7347 0.295306
    endloop
  endfacet
  facet normal 1 0 0
    outer loop
      vertex 21 11.3342 0.0118825
      vertex 21 0 0
      vertex 21 20 0
    endloop
  endfacet
  facet normal 1 0 0
    outer loop
      vertex 21 11.0116 0.079993
      vertex 21 0 0
      vertex 21 11.3342 0.0118825
    endloop
  endfacet
  facet normal 1 0 0
    outer loop
      vertex 21 10.8347 0.178396
      vertex 21 0 0
      vertex 21 11.0116 0.079993
    endloop
  endfacet
  facet normal 1 0 0
    outer loop
      vertex 21 10.7347 0.295306
      vertex 21 0 0
      vertex 21 10.8347 0.178396
    endloop
  endfacet
  facet normal 0 1 -0
    outer loop
      vertex 21 20 0
      vertex 20 20 2.22045e-15
      vertex 21 20 0.0118825
    endloop
  endfacet
  facet normal 0 1 0
    outer loop
      vertex 18 20 0
      vertex 20 20 2.22045e-15
      vertex 21 20 0
    endloop
  endfacet
  facet normal 0 1 0
    outer loop
      vertex 20 20 2.22045e-15
      vertex 18 20 0
      vertex 18 20 2.22045e-15
    endloop
  endfacet
  facet normal -1 0 0
    outer loop
      vertex -21 20 0
      vertex -21 11.3342 0.0118825
      vertex -21 20 0.0118825
    endloop
  endfacet
  facet normal -1 0 0
    outer loop
      vertex -21 0 10
      vertex -21 10.6667 0.583333
      vertex -21 0 0
    endloop
  endfacet
  facet normal -1 -0 0
    outer loop
      vertex -21 10.6828 0.429129
      vertex -21 0 0
      vertex -21 10.6667 0.583333
    endloop
  endfacet
  facet normal -1 -0 0
    outer loop
      vertex -21 10.7347 0.295306
      vertex -21 0 0
      vertex -21 10.6828 0.429129
    endloop
  endfacet
  facet normal -1 -0 0
    outer loop
      vertex -21 10.8347 0.178396
      vertex -21 0 0
      vertex -21 10.7347 0.295306
    endloop
  endfacet
  facet normal -1 -0 0
    outer loop
      vertex -21 11.0116 0.079993
      vertex -21 0 0
      vertex -21 10.8347 0.178396
    endloop
  endfacet
  facet normal -1 -0 0
    outer loop
      vertex -21 11.3342 0.0118825
      vertex -21 0 0
      vertex -21 11.0116 0.079993
    endloop
  endfacet
  facet normal -1 0 0
    outer loop
      vertex -21 0 0
      vertex -21 11.3342 0.0118825
      vertex -21 20 0
    endloop
  endfacet
  facet normal -1 0 0
    outer loop
      vertex -21 10.6667 0.583333
      vertex -21 0 10
      vertex -21 10.6667 9.75
    endloop
  endfacet
  facet normal -1 0 0
    outer loop
      vertex -21 10.6667 9.75
      vertex -21 0 10
      vertex -21 10.6828 9.91227
    endloop
  endfacet
  facet normal -1 0 0
    outer loop
      vertex -21 10.6828 9.91227
      vertex -21 0 10
      vertex -21 10.7113 10
    endloop
  endfacet
  facet normal 0 1 0
    outer loop
      vertex -18 20 2.22045e-15
      vertex -18 20 0
      vertex -20 20 2.22045e-15
    endloop
  endfacet
  facet normal 0 1 0
    outer loop
      vertex -20 20 2.22045e-15
      vertex -21 20 0
      vertex -21 20 0.0118825
    endloop
  endfacet
  facet normal 0 1 0
    outer loop
      vertex -21 20 0
      vertex -20 20 2.22045e-15
      vertex -18 20 0
    endloop
  endfacet
endsolid OpenSCAD_Model
